<svg width="25" height="25" viewBox="0 0 25 25" fill="none" xmlns="http://www.w3.org/2000/svg">
<path d="M12.4392 2.75768L10.0292 8.36768H7.61922C7.21922 8.36768 6.82922 8.39768 6.44922 8.47768L7.44922 6.07768L7.48922 5.98768L7.54922 5.82768C7.57922 5.75768 7.59922 5.69768 7.62922 5.64768C8.78922 2.95768 10.0892 2.11768 12.4392 2.75768Z" fill="#4FD022"/>
<path d="M19.2272 8.63934L19.2072 8.62934C18.6072 8.45934 17.9972 8.36934 17.3772 8.36934H11.1172L13.3672 3.13934L13.3972 3.06934C13.5372 3.11934 13.6872 3.18934 13.8372 3.23934L16.0472 4.16934C17.2772 4.67934 18.1372 5.20934 18.6672 5.84934C18.7572 5.96934 18.8372 6.07934 18.9172 6.20934C19.0072 6.34934 19.0772 6.48934 19.1172 6.63934C19.1572 6.72934 19.1872 6.80934 19.2072 6.89934C19.3572 7.40934 19.3672 7.98934 19.2272 8.63934Z" fill="#4FD022"/>
<path d="M13.0195 18.2079H13.2695C13.5695 18.2079 13.8195 17.9379 13.8195 17.6079C13.8195 17.1879 13.6995 17.1279 13.4395 17.0279L13.0195 16.8779V18.2079Z" fill="#4FD022"/>
<path d="M18.7883 10.0662C18.3383 9.93621 17.8683 9.86621 17.3783 9.86621H7.61828C6.93828 9.86621 6.29828 9.99621 5.69828 10.2562C3.95828 11.0062 2.73828 12.7362 2.73828 14.7462V16.6962C2.73828 16.9362 2.75828 17.1662 2.78828 17.4062C3.00828 20.5862 4.70828 22.2862 7.88828 22.4962C8.11828 22.5262 8.34828 22.5462 8.59828 22.5462H16.3983C20.0983 22.5462 22.0483 20.7862 22.2383 17.2862C22.2483 17.0962 22.2583 16.8962 22.2583 16.6962V14.7462C22.2583 12.5362 20.7883 10.6762 18.7883 10.0662ZM13.7783 16.0462C14.2383 16.2062 14.8583 16.5462 14.8583 17.6062C14.8583 18.5162 14.1483 19.2462 13.2683 19.2462H13.0183V19.4662C13.0183 19.7562 12.7883 19.9862 12.4983 19.9862C12.2083 19.9862 11.9783 19.7562 11.9783 19.4662V19.2462H11.8883C10.9283 19.2462 10.1383 18.4362 10.1383 17.4362C10.1383 17.1462 10.3683 16.9162 10.6583 16.9162C10.9483 16.9162 11.1783 17.1462 11.1783 17.4362C11.1783 17.8562 11.4983 18.2062 11.8883 18.2062H11.9783V16.5162L11.2183 16.2462C10.7583 16.0862 10.1383 15.7462 10.1383 14.6862C10.1383 13.7762 10.8483 13.0462 11.7283 13.0462H11.9783V12.8262C11.9783 12.5362 12.2083 12.3062 12.4983 12.3062C12.7883 12.3062 13.0183 12.5362 13.0183 12.8262V13.0462H13.1083C14.0683 13.0462 14.8583 13.8562 14.8583 14.8562C14.8583 15.1462 14.6283 15.3762 14.3383 15.3762C14.0483 15.3762 13.8183 15.1462 13.8183 14.8562C13.8183 14.4362 13.4983 14.0862 13.1083 14.0862H13.0183V15.7762L13.7783 16.0462Z" fill="#4FD022"/>
<path d="M11.1797 14.6889C11.1797 15.1089 11.2997 15.1689 11.5597 15.2689L11.9797 15.4189V14.0889H11.7297C11.4197 14.0889 11.1797 14.3589 11.1797 14.6889Z" fill="#4FD022"/>
</svg>
