<svg width="40" height="41" viewBox="0 0 40 41" fill="none" xmlns="http://www.w3.org/2000/svg">
<path opacity="0.32" d="M19.4863 18.0911C17.9933 15.7686 17.2468 14.6073 16.2975 14.2062C15.468 13.8557 14.5321 13.8557 13.7027 14.2062C12.7534 14.6073 12.0069 15.7686 10.5138 18.0911L5.63438 25.6813C3.05343 29.6961 1.76295 31.7036 1.88152 33.3636C1.98485 34.8103 2.71123 36.1408 3.87225 37.0099C5.20453 38.0074 7.59097 38.0074 12.3638 38.0074H27.6363C32.4091 38.0074 34.7956 38.0074 36.1279 37.0099C37.2889 36.1408 38.0153 34.8103 38.1186 33.3636C38.2371 31.7036 36.9468 29.6961 34.3658 25.6813L32.5001 22.7791C32.0334 22.0533 31.8001 21.6903 31.5828 21.4616C30.2688 20.0793 28.0648 20.0793 26.7508 21.4616C26.5334 21.6903 26.3001 22.0533 25.8334 22.7791C25.6001 23.1421 25.4834 23.3236 25.3748 23.4379C24.7178 24.1291 23.6158 24.1291 22.9588 23.4379C22.8501 23.3236 22.7334 23.1421 22.5001 22.7791L19.4863 18.0911Z" fill="#2F384C"/>
<path d="M22.0833 8.42407C22.0833 4.97229 24.8814 2.17407 28.3333 2.17407C31.7851 2.17407 34.5833 4.97229 34.5833 8.42407C34.5833 11.8759 31.7851 14.6741 28.3333 14.6741C24.8814 14.6741 22.0833 11.8759 22.0833 8.42407Z" fill="#2F384C"/>
</svg>
