<svg width="25" height="25" viewBox="0 0 25 25" fill="none" xmlns="http://www.w3.org/2000/svg">
<path d="M17 23.0459C17.9665 23.0459 18.75 22.2624 18.75 21.2959C18.75 20.3294 17.9665 19.5459 17 19.5459C16.0335 19.5459 15.25 20.3294 15.25 21.2959C15.25 22.2624 16.0335 23.0459 17 23.0459Z" fill="#F78432"/>
<path d="M9 23.0459C9.9665 23.0459 10.75 22.2624 10.75 21.2959C10.75 20.3294 9.9665 19.5459 9 19.5459C8.0335 19.5459 7.25 20.3294 7.25 21.2959C7.25 22.2624 8.0335 23.0459 9 23.0459Z" fill="#F78432"/>
<path d="M5.59 4.4859L5.39 6.9359C5.35 7.4059 5.72 7.7959 6.19 7.7959H21.5C21.92 7.7959 22.27 7.4759 22.3 7.0559C22.43 5.2859 21.08 3.8459 19.31 3.8459H7.02C6.92 3.4059 6.72 2.9859 6.41 2.6359C5.91 2.1059 5.21 1.7959 4.49 1.7959H2.75C2.34 1.7959 2 2.1359 2 2.5459C2 2.9559 2.34 3.2959 2.75 3.2959H4.49C4.8 3.2959 5.09 3.4259 5.3 3.6459C5.51 3.8759 5.61 4.1759 5.59 4.4859Z" fill="#F78432"/>
<path d="M21.2601 9.2959H5.92005C5.50005 9.2959 5.16005 9.6159 5.12005 10.0259L4.76005 14.3759C4.62005 16.0859 5.96005 17.5459 7.67005 17.5459H18.7901C20.2901 17.5459 21.6101 16.3159 21.7201 14.8159L22.0501 10.1459C22.0901 9.6859 21.7301 9.2959 21.2601 9.2959Z" fill="#F78432"/>
</svg>
