<svg width="19" height="23" viewBox="0 0 19 23" fill="none" xmlns="http://www.w3.org/2000/svg">
<path fill-rule="evenodd" clip-rule="evenodd" d="M44.5503 6.63983L44.3426 5.65396H41.4579V17.3442H44.7909V9.41046C45.5794 8.37921 46.9097 8.57996 47.3332 8.71127V5.65533C46.8891 5.49583 45.3306 5.20296 44.5503 6.63846V6.63983ZM37.8609 2.75821L34.6049 3.44983L34.5911 14.1487C34.5911 16.1218 36.0747 17.5814 38.0547 17.5814C39.1444 17.5814 39.9495 17.3738 40.3957 17.1393V14.4237C39.9681 14.5942 37.8636 15.2061 37.8636 13.2412V8.49746H40.3957V5.65327H37.8636L37.8609 2.75821ZM28.8312 9.04608C28.8312 8.52496 29.2644 8.32421 29.9643 8.32421C31.1228 8.34929 32.2596 8.6435 33.2849 9.18358V6.04171C32.2277 5.62604 31.1001 5.41873 29.9643 5.43121C27.2665 5.43121 25.4563 6.84471 25.4563 9.20421C25.4563 12.8961 30.5266 12.2966 30.5266 13.8881C30.5266 14.511 29.9904 14.7035 29.2458 14.7035C28.1417 14.7035 26.7158 14.247 25.5972 13.6379V16.821C26.7487 17.3219 27.9901 17.5832 29.2458 17.589C32.0185 17.589 33.9297 16.2195 33.9297 13.818C33.9297 9.83327 28.8306 10.5455 28.8306 9.04471L28.8312 9.04608ZM6.5425 7.35827C6.5425 6.41639 7.32625 6.05202 8.59262 6.05202C10.6885 6.0973 12.7452 6.62947 14.6 7.60646V1.92083C12.6874 1.1692 10.6475 0.794507 8.59262 0.817395C3.71137 0.817395 0.4375 3.37421 0.4375 7.64358C0.4375 14.3233 9.61012 13.2385 9.61012 16.1177C9.61012 17.2438 8.64762 17.5931 7.29325 17.5931C5.29606 17.5931 2.71656 16.7667 0.69325 15.6667V21.4266C2.77638 22.333 5.02218 22.8059 7.29394 22.8167C12.3106 22.8167 15.7687 20.3383 15.7687 15.9946C15.7687 8.78552 6.5425 10.0732 6.5425 7.35964V7.35827Z" fill="white"/>
</svg>
