<svg width="24" height="25" viewBox="0 0 24 25" fill="none" xmlns="http://www.w3.org/2000/svg">
<path d="M17.49 10.1455L5.6 17.3155C4.9 17.7355 4 17.2355 4 16.4155V8.41555C4 4.92555 7.77 2.74555 10.8 4.48555L15.39 7.12555L17.48 8.32555C18.17 8.73555 18.18 9.73555 17.49 10.1455Z" fill="#FF013E"/>
<path d="M18.0888 16.0065L14.0388 18.3465L9.99883 20.6765C8.54883 21.5065 6.90883 21.3365 5.71883 20.4965C5.13883 20.0965 5.20883 19.2065 5.81883 18.8465L18.5288 11.2265C19.1288 10.8665 19.9188 11.2065 20.0288 11.8965C20.2788 13.4465 19.6388 15.1165 18.0888 16.0065Z" fill="#FF013E"/>
</svg>
