<svg width="25" height="25" viewBox="0 0 25 25" fill="none" xmlns="http://www.w3.org/2000/svg">
<path d="M21.5 9.69559C19.19 6.06559 15.81 3.97559 12.25 3.97559C10.47 3.97559 8.74 4.49559 7.16 5.46559C5.58 6.44559 4.16 7.87559 3 9.69559C2 11.2656 2 13.8156 3 15.3856C5.31 19.0256 8.69 21.1056 12.25 21.1056C14.03 21.1056 15.76 20.5856 17.34 19.6156C18.92 18.6356 20.34 17.2056 21.5 15.3856C22.5 13.8256 22.5 11.2656 21.5 9.69559ZM12.25 16.5856C10.01 16.5856 8.21 14.7756 8.21 12.5456C8.21 10.3156 10.01 8.50559 12.25 8.50559C14.49 8.50559 16.29 10.3156 16.29 12.5456C16.29 14.7756 14.49 16.5856 12.25 16.5856Z" fill="#0169FF"/>
<path d="M12.2484 9.68652C10.6784 9.68652 9.39844 10.9665 9.39844 12.5465C9.39844 14.1165 10.6784 15.3965 12.2484 15.3965C13.8184 15.3965 15.1084 14.1165 15.1084 12.5465C15.1084 10.9765 13.8184 9.68652 12.2484 9.68652Z" fill="#0169FF"/>
</svg>
