<svg width="220" height="50" viewBox="0 0 220 50" fill="none" xmlns="http://www.w3.org/2000/svg">
<g clip-path="url(#clip0_731_4274)">
<path d="M25.0425 0C11.2342 0 0 11.2148 0 24.9994C0 38.7839 11.2342 49.9987 25.0425 49.9987C38.8508 49.9987 50.085 38.7839 50.085 24.9994C50.085 11.2148 38.8521 0 25.0425 0ZM25.0425 46.1533C13.3581 46.1533 3.85209 36.6636 3.85209 24.9994C3.85209 13.3351 13.3581 3.84675 25.0425 3.84675C36.7268 3.84675 46.2329 13.3364 46.2329 25.0006C46.2329 36.6649 36.7268 46.1545 25.0425 46.1545V46.1533Z" fill="#D1D3D4"/>
<path fill-rule="evenodd" clip-rule="evenodd" d="M33.9663 10.4544C34.0854 10.5443 34.1819 10.6606 34.2483 10.7941C34.3148 10.9277 34.3493 11.0748 34.3492 11.224V29.2782C34.349 30.1156 34.0761 30.9302 33.5717 31.5987C33.0673 32.2672 32.3589 32.7533 31.5536 32.9833L29.8578 33.4676C29.4418 33.5925 29.0051 33.6335 28.5731 33.5882C28.1411 33.5429 27.7224 33.4123 27.3413 33.2039C26.9601 32.9955 26.6242 32.7135 26.353 32.3742C26.0818 32.0349 25.8807 31.6451 25.7613 31.2275C25.6419 30.8098 25.6067 30.3727 25.6577 29.9413C25.7087 29.5099 25.8448 29.093 26.0582 28.7147C26.2716 28.3363 26.5581 28.0042 26.9009 27.7375C27.2437 27.4707 27.6361 27.2748 28.0553 27.1609L31.0243 26.313C31.4269 26.198 31.7811 25.955 32.0333 25.6207C32.2855 25.2865 32.422 24.8792 32.4221 24.4604V17.3187L20.8596 20.623V33.1323C20.8594 33.9698 20.5865 34.7844 20.0821 35.4529C19.5777 36.1214 18.8693 36.6074 18.064 36.8375L16.3682 37.3218C15.9517 37.4484 15.5141 37.4907 15.081 37.4464C14.6479 37.4022 14.2279 37.2721 13.8456 37.0638C13.4633 36.8556 13.1263 36.5733 12.8542 36.2334C12.5821 35.8935 12.3804 35.5029 12.2609 35.0843C12.1413 34.6657 12.1063 34.2274 12.1578 33.7951C12.2094 33.3629 12.3465 32.9451 12.5612 32.5664C12.7758 32.1876 13.0637 31.8554 13.4081 31.5891C13.7525 31.3227 14.1465 31.1276 14.567 31.0151L17.5347 30.1672C17.9374 30.0522 18.2916 29.8092 18.5438 29.4749C18.796 29.1406 18.9324 28.7333 18.9325 28.3146V15.0781C18.9326 14.8688 19.0008 14.6651 19.1269 14.498C19.253 14.3308 19.4301 14.2093 19.6314 14.1518L33.121 10.2977C33.2644 10.2566 33.4154 10.2493 33.5621 10.2765C33.7088 10.3037 33.8472 10.3646 33.9663 10.4544Z" fill="#D1D3D4"/>
<path d="M207.751 33.3333V15.7576H219.594V18.8213H211.467V23.0093H218.985V26.073H211.467V30.2696H219.628V33.3333H207.751Z" fill="#D1D3D4"/>
<path d="M191.892 33.3333V15.7576H198.826C200.153 15.7576 201.286 15.995 202.224 16.4699C203.168 16.939 203.886 17.6055 204.378 18.4695C204.876 19.3276 205.125 20.3374 205.125 21.4989C205.125 22.666 204.873 23.6701 204.37 24.5111C203.866 25.3464 203.137 25.9872 202.181 26.4335C201.232 26.8797 200.082 27.1029 198.731 27.1029H194.089V24.1164H198.131C198.84 24.1164 199.429 24.0191 199.899 23.8246C200.368 23.63 200.717 23.3383 200.946 22.9492C201.18 22.5602 201.297 22.0767 201.297 21.4989C201.297 20.9153 201.18 20.4233 200.946 20.0228C200.717 19.6223 200.365 19.3191 199.89 19.1131C199.421 18.9014 198.829 18.7956 198.113 18.7956H195.608V33.3333H191.892ZM201.383 25.335L205.751 33.3333H201.649L197.375 25.335H201.383Z" fill="#D1D3D4"/>
<path d="M189.139 24.5455C189.139 26.4621 188.776 28.0927 188.049 29.4372C187.328 30.7817 186.344 31.8087 185.097 32.5181C183.855 33.2218 182.459 33.5737 180.909 33.5737C179.347 33.5737 177.945 33.219 176.704 32.5095C175.462 31.8001 174.481 30.7731 173.76 29.4286C173.039 28.0841 172.679 26.4564 172.679 24.5455C172.679 22.6289 173.039 20.9983 173.76 19.6538C174.481 18.3093 175.462 17.2852 176.704 16.5815C177.945 15.8721 179.347 15.5173 180.909 15.5173C182.459 15.5173 183.855 15.8721 185.097 16.5815C186.344 17.2852 187.328 18.3093 188.049 19.6538C188.776 20.9983 189.139 22.6289 189.139 24.5455ZM185.371 24.5455C185.371 23.304 185.185 22.257 184.814 21.4045C184.447 20.5521 183.93 19.9056 183.26 19.465C182.591 19.0245 181.807 18.8042 180.909 18.8042C180.011 18.8042 179.227 19.0245 178.557 19.465C177.888 19.9056 177.367 20.5521 176.995 21.4045C176.629 22.257 176.446 23.304 176.446 24.5455C176.446 25.787 176.629 26.834 176.995 27.6865C177.367 28.539 177.888 29.1855 178.557 29.626C179.227 30.0665 180.011 30.2868 180.909 30.2868C181.807 30.2868 182.591 30.0665 183.26 29.626C183.93 29.1855 184.447 28.539 184.814 27.6865C185.185 26.834 185.371 25.787 185.371 24.5455Z" fill="#D1D3D4"/>
<path d="M156.978 18.8213V15.7576H171.413V18.8213H166.032V33.3333H162.359V18.8213H156.978Z" fill="#D1D3D4"/>
<path d="M151.346 20.8124C151.277 20.1201 150.983 19.5823 150.462 19.199C149.941 18.8156 149.235 18.624 148.342 18.624C147.736 18.624 147.224 18.7098 146.806 18.8814C146.389 19.0474 146.068 19.2791 145.845 19.5766C145.628 19.8741 145.519 20.2116 145.519 20.5892C145.507 20.9039 145.573 21.1785 145.716 21.4131C145.865 21.6477 146.068 21.8508 146.326 22.0224C146.583 22.1883 146.881 22.3342 147.218 22.4601C147.556 22.5802 147.916 22.6832 148.299 22.7691L149.879 23.1467C150.645 23.3183 151.349 23.5471 151.99 23.8332C152.63 24.1193 153.185 24.4711 153.655 24.8888C154.124 25.3064 154.487 25.7985 154.744 26.3649C155.008 26.9313 155.142 27.5806 155.148 28.313C155.142 29.3886 154.867 30.3211 154.324 31.1107C153.786 31.8945 153.008 32.5038 151.99 32.9386C150.977 33.3677 149.756 33.5823 148.325 33.5823C146.906 33.5823 145.671 33.3649 144.618 32.93C143.571 32.4952 142.753 31.8516 142.163 30.9991C141.58 30.1409 141.274 29.0796 141.245 27.8152H144.841C144.881 28.4045 145.05 28.8965 145.347 29.2913C145.65 29.6804 146.054 29.975 146.557 30.1752C147.067 30.3698 147.642 30.467 148.282 30.467C148.912 30.467 149.458 30.3755 149.921 30.1924C150.391 30.0093 150.754 29.7547 151.011 29.4286C151.269 29.1025 151.398 28.7278 151.398 28.3044C151.398 27.9096 151.28 27.5778 151.046 27.3089C150.817 27.04 150.479 26.8111 150.033 26.6223C149.592 26.4335 149.052 26.2619 148.411 26.1074L146.497 25.6268C145.015 25.2664 143.845 24.7028 142.987 23.9362C142.129 23.1695 141.703 22.1368 141.709 20.8381C141.703 19.774 141.986 18.8443 142.558 18.049C143.136 17.2537 143.928 16.633 144.935 16.1867C145.942 15.7405 147.087 15.5173 148.368 15.5173C149.673 15.5173 150.811 15.7405 151.784 16.1867C152.762 16.633 153.523 17.2537 154.066 18.049C154.61 18.8443 154.89 19.7654 154.908 20.8124H151.346Z" fill="#D1D3D4"/>
<path d="M133.554 21.9109H129.795C129.726 21.4246 129.586 20.9926 129.374 20.615C129.163 20.2317 128.891 19.9056 128.559 19.6367C128.227 19.3678 127.844 19.1618 127.409 19.0188C126.98 18.8757 126.514 18.8042 126.01 18.8042C125.101 18.8042 124.308 19.0302 123.633 19.4822C122.958 19.9284 122.434 20.5807 122.063 21.4389C121.691 22.2913 121.505 23.3269 121.505 24.5455C121.505 25.7985 121.691 26.8512 122.063 27.7037C122.44 28.5561 122.967 29.1998 123.642 29.6346C124.317 30.0694 125.098 30.2868 125.985 30.2868C126.482 30.2868 126.943 30.221 127.366 30.0894C127.795 29.9578 128.176 29.7662 128.508 29.5144C128.839 29.257 129.114 28.9452 129.331 28.579C129.555 28.2128 129.709 27.7952 129.795 27.326L133.554 27.3432C133.457 28.1499 133.213 28.928 132.824 29.6775C132.441 30.4213 131.923 31.0878 131.271 31.6771C130.624 32.2606 129.852 32.7241 128.954 33.0673C128.061 33.4049 127.052 33.5737 125.924 33.5737C124.357 33.5737 122.955 33.219 121.719 32.5095C120.489 31.8001 119.517 30.7731 118.801 29.4286C118.092 28.0841 117.737 26.4564 117.737 24.5455C117.737 22.6289 118.098 20.9983 118.819 19.6538C119.54 18.3093 120.518 17.2852 121.754 16.5815C122.989 15.8721 124.38 15.5173 125.924 15.5173C126.943 15.5173 127.887 15.6604 128.756 15.9464C129.632 16.2325 130.407 16.6501 131.082 17.1994C131.757 17.7429 132.307 18.4094 132.73 19.199C133.159 19.9885 133.434 20.8925 133.554 21.9109Z" fill="#D1D3D4"/>
<path d="M114.989 15.7576V33.3333H111.273V15.7576H114.989Z" fill="#D1D3D4"/>
<path d="M104.972 20.8124C104.903 20.1201 104.608 19.5823 104.088 19.199C103.567 18.8156 102.86 18.624 101.968 18.624C101.361 18.624 100.849 18.7098 100.432 18.8814C100.014 19.0474 99.6936 19.2791 99.4705 19.5766C99.2531 19.8741 99.1444 20.2116 99.1444 20.5892C99.133 20.9039 99.1988 21.1785 99.3418 21.4131C99.4905 21.6477 99.6936 21.8508 99.9511 22.0224C100.209 22.1883 100.506 22.3342 100.844 22.4601C101.181 22.5802 101.542 22.6832 101.925 22.7691L103.504 23.1467C104.271 23.3183 104.974 23.5471 105.615 23.8332C106.256 24.1193 106.811 24.4711 107.28 24.8888C107.749 25.3064 108.113 25.7985 108.37 26.3649C108.633 26.9313 108.768 27.5806 108.773 28.313C108.768 29.3886 108.493 30.3211 107.949 31.1107C107.412 31.8945 106.634 32.5038 105.615 32.9386C104.602 33.3677 103.381 33.5823 101.951 33.5823C100.532 33.5823 99.296 33.3649 98.2433 32.93C97.1963 32.4952 96.3782 31.8516 95.7889 30.9991C95.2053 30.1409 94.8992 29.0796 94.8706 27.8152H98.4664C98.5065 28.4045 98.6753 28.8965 98.9728 29.2913C99.276 29.6804 99.6793 29.975 100.183 30.1752C100.692 30.3698 101.267 30.467 101.908 30.467C102.537 30.467 103.083 30.3755 103.547 30.1924C104.016 30.0093 104.379 29.7547 104.637 29.4286C104.894 29.1025 105.023 28.7278 105.023 28.3044C105.023 27.9096 104.906 27.5778 104.671 27.3089C104.442 27.04 104.105 26.8111 103.658 26.6223C103.218 26.4335 102.677 26.2619 102.037 26.1074L100.123 25.6268C98.6409 25.2664 97.4709 24.7028 96.6127 23.9362C95.7545 23.1695 95.3283 22.1368 95.334 20.8381C95.3283 19.774 95.6115 18.8443 96.1836 18.049C96.7615 17.2537 97.5539 16.633 98.5608 16.1867C99.5678 15.7405 100.712 15.5173 101.994 15.5173C103.298 15.5173 104.437 15.7405 105.409 16.1867C106.388 16.633 107.148 17.2537 107.692 18.049C108.236 18.8443 108.516 19.7654 108.533 20.8124H104.972Z" fill="#D1D3D4"/>
<path d="M88.6637 15.7576H92.3797V27.1715C92.3797 28.4531 92.0736 29.5744 91.4614 30.5356C90.855 31.4968 90.0054 32.2463 88.9126 32.7841C87.8198 33.3162 86.5469 33.5822 85.0937 33.5822C83.6347 33.5822 82.3589 33.3162 81.2661 32.7841C80.1734 32.2463 79.3238 31.4968 78.7173 30.5356C78.1108 29.5744 77.8076 28.4531 77.8076 27.1715V15.7576H81.5236V26.854C81.5236 27.5234 81.6695 28.1184 81.9613 28.639C82.2588 29.1597 82.6764 29.5687 83.2142 29.8662C83.752 30.1637 84.3785 30.3125 85.0937 30.3125C85.8145 30.3125 86.441 30.1637 86.9731 29.8662C87.5109 29.5687 87.9257 29.1597 88.2175 28.639C88.515 28.1184 88.6637 27.5234 88.6637 26.854V15.7576Z" fill="#D1D3D4"/>
<path d="M55.6943 15.7576H60.2771L65.1173 27.5663H65.3232L70.1634 15.7576H74.7462V33.3333H71.1418V21.8936H70.9959L66.4475 33.2475H63.993L59.4446 21.8507H59.2987V33.3333H55.6943V15.7576Z" fill="#D1D3D4"/>
</g>
<defs>
<clipPath id="clip0_731_4274">
<rect width="220" height="50" fill="white"/>
</clipPath>
</defs>
</svg>
