<svg width="264" height="60" viewBox="0 0 264 60" fill="none" xmlns="http://www.w3.org/2000/svg">
<g clip-path="url(#clip0_940_22780)">
<path d="M30.051 0C13.481 0 0 13.4578 0 29.9992C0 46.5406 13.481 59.9985 30.051 59.9985C46.6209 59.9985 60.102 46.5406 60.102 29.9992C60.102 13.4578 46.6225 0 30.051 0ZM30.051 55.3839C16.0298 55.3839 4.62251 43.9963 4.62251 29.9992C4.62251 16.0022 16.0298 4.6161 30.051 4.6161C44.0722 4.6161 55.4794 16.0037 55.4794 30.0008C55.4794 43.9978 44.0722 55.3855 30.051 55.3855V55.3839Z" fill="#D1D3D4"/>
<path d="M43.9216 27.692H30.0525C27.0396 27.692 24.4769 25.7612 23.5223 23.0774H48.5456V18.4613H41.3775C40.3033 13.2006 35.6343 9.23065 30.0525 9.23065C24.4707 9.23065 19.8001 13.2006 18.7259 18.4613H16.3045C12.4239 18.4613 9.18134 21.6317 9.24808 25.504C9.31328 29.2663 12.3975 32.3065 16.1818 32.3065H30.0525C33.0653 32.3065 35.6281 34.2372 36.5827 36.9226H11.5578V41.5387H18.7259C19.8001 46.7994 24.4691 50.7694 30.0525 50.7694C35.6358 50.7694 40.3033 46.7994 41.3775 41.5387H43.7989C47.6795 41.5387 50.9221 38.3683 50.8553 34.496C50.7901 30.7337 47.7059 27.6935 43.9216 27.6935V27.692ZM30.0525 13.8452C33.0653 13.8452 35.6281 15.7759 36.5827 18.4598H23.5223C24.4769 15.7759 27.0396 13.8452 30.0525 13.8452ZM16.2486 27.692C15.0053 27.692 13.9342 26.7405 13.8721 25.5009C13.807 24.176 14.8671 23.0774 16.1803 23.0774H18.7244C19.0721 24.7819 19.7985 26.35 20.8106 27.692H16.2486ZM30.0525 46.1533C27.0396 46.1533 24.4769 44.2225 23.5223 41.5372H36.5827C35.6281 44.221 33.0653 46.1533 30.0525 46.1533ZM43.9216 36.9226H41.3775C41.0298 35.2181 40.3033 33.65 39.2913 32.3065H43.8533C45.0966 32.3065 46.1676 33.2579 46.2297 34.4976C46.2949 35.8224 45.2347 36.9211 43.9216 36.9211V36.9226Z" fill="#D1D3D4"/>
<path d="M67.0371 25.597H71.7512V36.918H74.643V25.597H79.3385V23.0805H67.0371V25.597Z" fill="#D1D3D4"/>
<path d="M89.7058 28.5566H84.0154V23.0805H81.105V36.918H84.0154V31.0917H89.7058V36.918H92.5976V23.0805H89.7058V28.5566Z" fill="#D1D3D4"/>
<path d="M98.3269 31.0545H103.623V28.5938H98.3269V25.597H104.43V23.0805H95.4165V36.918H104.449V34.3844H98.3269V31.0545Z" fill="#D1D3D4"/>
<path d="M116.432 28.8154C114.498 28.3706 113.689 28.0747 113.689 27.021C113.689 26.0401 114.441 25.3568 115.774 25.3568C117.107 25.3568 117.859 26.0525 117.944 27.1326H120.92C120.845 24.4689 118.761 22.8775 115.718 22.8775C112.356 22.8775 110.723 24.8377 110.723 27.114C110.723 29.7962 112.826 30.5183 115.361 31.1474C117.239 31.6092 118.253 31.9981 118.253 33.0534C118.253 34.1814 117.333 34.6448 116.036 34.6448C114.576 34.6448 113.5 33.8591 113.365 32.6846H110.402C110.439 35.5512 112.788 37.124 116.036 37.124C118.854 37.124 121.201 35.8286 121.201 32.8876C121.201 30.4269 119.304 29.539 116.431 28.8185L116.432 28.8154Z" fill="#D1D3D4"/>
<path d="M127.87 23.0805L121.841 36.918H125.016L126.18 34.2543H132.021L133.166 36.918H136.359L130.312 23.0805H127.87ZM127.214 31.9222L129.11 27.5014L131.007 31.9222H127.214Z" fill="#D1D3D4"/>
<path d="M145.674 32.5901L140.492 23.0805H137.918V36.918H140.83V29.4445L144.717 36.7708H146.632L150.502 29.4445V36.918H153.375V23.0805H150.82L145.674 32.5901Z" fill="#D1D3D4"/>
<path d="M162.296 23.0805H156.211V36.918H159.121V31.9966H162.296C164.962 31.9966 166.822 30.3866 166.822 27.5386C166.822 24.6905 164.962 23.0805 162.296 23.0805ZM161.92 29.4631H159.103V25.597H161.92C163.047 25.597 163.873 26.2819 163.873 27.5401C163.873 28.7983 163.047 29.4646 161.92 29.4646V29.4631Z" fill="#D1D3D4"/>
<path d="M171.649 23.0805H168.739V36.918H177.771V34.3844H171.649V23.0805Z" fill="#D1D3D4"/>
<path d="M182.749 31.0545H188.045V28.5938H182.749V25.597H188.853V23.0805H179.839V36.918H188.871V34.3844H182.749V31.0545Z" fill="#D1D3D4"/>
<path d="M200.854 28.8154C198.92 28.3706 198.111 28.0747 198.111 27.021C198.111 26.0401 198.863 25.3568 200.196 25.3568C201.529 25.3568 202.281 26.0525 202.366 27.1326H205.342C205.267 24.4689 203.182 22.8775 200.14 22.8775C196.778 22.8775 195.145 24.8377 195.145 27.114C195.145 29.7962 197.248 30.5183 199.783 31.1474C201.661 31.6092 202.675 31.9981 202.675 33.0534C202.675 34.1814 201.754 34.6448 200.458 34.6448C198.998 34.6448 197.922 33.8591 197.787 32.6846H194.824C194.861 35.5512 197.209 37.124 200.458 37.124C203.276 37.124 205.623 35.8286 205.623 32.8876C205.623 30.4269 203.726 29.539 200.853 28.8185L200.854 28.8154Z" fill="#D1D3D4"/>
<path d="M219.09 23.0805H206.79V25.597H211.504V36.918H214.396V25.597H219.09V23.0805Z" fill="#D1D3D4"/>
<path d="M222.903 23.0805L216.875 36.918H220.049L221.213 34.2543H227.054L228.2 36.918H231.392L225.345 23.0805H222.903ZM222.247 31.9222L224.144 27.5014L226.04 31.9222H222.247Z" fill="#D1D3D4"/>
<path d="M238.098 28.8154C236.164 28.3706 235.355 28.0747 235.355 27.021C235.355 26.0401 236.107 25.3568 237.44 25.3568C238.773 25.3568 239.525 26.0525 239.61 27.1326H242.586C242.511 24.4689 240.427 22.8775 237.384 22.8775C234.022 22.8775 232.389 24.8377 232.389 27.114C232.389 29.7962 234.492 30.5183 237.027 31.1474C238.905 31.6092 239.919 31.9981 239.919 33.0534C239.919 34.1814 238.999 34.6448 237.702 34.6448C236.242 34.6448 235.166 33.8591 235.031 32.6846H232.068C232.105 35.5512 234.454 37.124 237.702 37.124C240.52 37.124 242.867 35.8286 242.867 32.8876C242.867 30.4269 240.97 29.539 238.097 28.8185L238.098 28.8154Z" fill="#D1D3D4"/>
<path d="M253.685 28.5566H247.995V23.0805H245.084V36.918H247.995V31.0917H253.685V36.918H256.577V23.0805H253.685V28.5566Z" fill="#D1D3D4"/>
<path d="M260.2 23.595V25.3878H259.666V23.595H258.868V23.0805H261.006V23.595H260.202H260.2ZM263.464 25.3878V24.2241L262.795 25.3676H262.55L261.881 24.2241V25.3878H261.347V23.0805H261.797L262.673 24.5913L263.548 23.0805H263.998V25.3878H263.464Z" fill="#D1D3D4"/>
</g>
<defs>
<clipPath id="clip0_940_22780">
<rect width="264" height="60" fill="white"/>
</clipPath>
</defs>
</svg>
