<svg width="20" height="20" viewBox="0 0 20 20" fill="none" xmlns="http://www.w3.org/2000/svg">
<path d="M18.3332 5.83366V4.16699C18.3332 2.50033 17.4998 1.66699 15.8332 1.66699H4.1665C2.49984 1.66699 1.6665 2.50033 1.6665 4.16699V5.83366C1.6665 7.35866 2.35817 8.18366 3.74984 8.30866C3.88317 8.32533 4.02484 8.33366 4.1665 8.33366H15.8332C15.9748 8.33366 16.1165 8.32533 16.2498 8.30866C17.6415 8.18366 18.3332 7.35866 18.3332 5.83366Z" fill="#181818"/>
<path fill-rule="evenodd" clip-rule="evenodd" d="M3.75 10.2087C3.75 9.75032 4.125 9.37532 4.58333 9.37532H15.4167C15.875 9.37532 16.25 9.75032 16.25 10.2087V15.8337C16.25 17.5003 15.8333 18.3337 13.75 18.3337H6.25C4.16667 18.3337 3.75 17.5003 3.75 15.8337V10.2087ZM8.48333 13.1253H11.5167C11.8583 13.1253 12.1417 12.842 12.1417 12.5003C12.1417 12.1587 11.8583 11.8753 11.5167 11.8753H8.48333C8.14167 11.8753 7.85833 12.1587 7.85833 12.5003C7.85833 12.842 8.14167 13.1253 8.48333 13.1253Z" fill="#181818"/>
</svg>
