<svg width="20" height="20" viewBox="0 0 20 20" fill="none" xmlns="http://www.w3.org/2000/svg">
<path d="M2.49984 7.5V7.5C2.0396 7.5 1.6665 7.1269 1.6665 6.66667V5C1.6665 3.61929 2.78579 2.5 4.1665 2.5H15.8332C17.2139 2.5 18.3332 3.61929 18.3332 5V6.66667C18.3332 7.1269 17.9601 7.5 17.4998 7.5V7.5M2.49984 7.5L3.10393 14.7491C3.2335 16.304 4.5333 17.5 6.09357 17.5H13.9061C15.4664 17.5 16.7662 16.304 16.8957 14.7491L17.4998 7.5M2.49984 7.5H17.4998M12.4995 11.1821C11.7275 11.4946 10.8836 11.6667 9.99951 11.6667C9.11543 11.6667 8.27154 11.4946 7.49951 11.1821" stroke="#181818" stroke-width="1.5" stroke-linecap="round" stroke-linejoin="round"/>
</svg>
