<svg width="20" height="20" viewBox="0 0 20 20" fill="none" xmlns="http://www.w3.org/2000/svg">
<path d="M16.8418 6.51686L10.4252 10.2335C10.1668 10.3835 9.84185 10.3835 9.57518 10.2335L3.15851 6.51686C2.70018 6.2502 2.58351 5.6252 2.93351 5.23353C3.17518 4.95853 3.45018 4.73353 3.74185 4.5752L8.25851 2.0752C9.22518 1.53353 10.7918 1.53353 11.7585 2.0752L16.2752 4.5752C16.5668 4.73353 16.8418 4.96686 17.0835 5.23353C17.4168 5.6252 17.3002 6.2502 16.8418 6.51686Z" fill="#181818"/>
<path d="M9.52507 11.7835V17.4669C9.52507 18.1002 8.8834 18.5169 8.31673 18.2419C6.60006 17.4002 3.7084 15.8252 3.7084 15.8252C2.69173 15.2502 1.8584 13.8002 1.8584 12.6085V8.30853C1.8584 7.6502 2.55007 7.23353 3.11673 7.55853L9.1084 11.0335C9.3584 11.1919 9.52507 11.4752 9.52507 11.7835Z" fill="#181818"/>
<path d="M10.4751 17.4669V11.7835C10.4751 11.4752 10.6418 11.1919 10.8918 11.0335L16.8834 7.55853C17.4501 7.23353 18.1418 7.6502 18.1418 8.30853V12.6085C18.1418 13.8002 17.3084 15.2502 16.2918 15.8252C16.2918 15.8252 13.4001 17.4002 11.6834 18.2419C11.1168 18.5169 10.4751 18.1002 10.4751 17.4669Z" fill="#181818"/>
</svg>
