<svg width="20" height="20" viewBox="0 0 20 20" fill="none" xmlns="http://www.w3.org/2000/svg">
<path d="M9.99984 9.58366L2.49984 5.83366M9.99984 9.58366V17.917M9.99984 9.58366L13.8564 7.65536M17.4998 5.83366L14.1665 7.50033M13.8564 7.65536L6.12387 3.60498M13.8564 7.65536L14.1665 7.50033M6.12387 3.60498L9.55262 1.8906C9.83415 1.74984 10.1655 1.74984 10.4471 1.8906L17.7804 5.55727C18.1192 5.72666 18.3332 6.07292 18.3332 6.45169V13.549C18.3332 13.9277 18.1192 14.274 17.7804 14.4434L10.4471 18.1101C10.1655 18.2508 9.83415 18.2508 9.55262 18.1101L2.21929 14.4434C1.88051 14.274 1.6665 13.9277 1.6665 13.549V6.45169C1.6665 6.07292 1.88051 5.72666 2.21929 5.55727L6.12387 3.60498ZM14.1665 7.50033V10.8337" stroke="#181818" stroke-width="1.5" stroke-linecap="round"/>
</svg>
