<svg width="20" height="20" viewBox="0 0 20 20" fill="none" xmlns="http://www.w3.org/2000/svg">
<path d="M14.6188 6.93955C16.7764 7.65319 18.3332 9.68646 18.3332 12.0833C18.3332 12.9701 18.1201 13.8071 17.7423 14.5459L18.3332 17.5L15.379 16.9092C14.6402 17.2869 13.8032 17.5 12.9165 17.5C11.3651 17.5 9.96596 16.8477 8.97846 15.8025M14.6188 6.93955C14.0835 6.76249 13.5112 6.66667 12.9165 6.66667C9.92496 6.66667 7.49984 9.09179 7.49984 12.0833C7.49984 13.5234 8.06183 14.8323 8.97846 15.8025M14.6188 6.93955C13.7022 4.35279 11.234 2.5 8.33317 2.5C4.65127 2.5 1.6665 5.48477 1.6665 9.16667C1.6665 10.6834 2.17301 12.0818 3.0261 13.202L2.49984 15.8333L5.54536 15.2242C6.39357 15.6152 7.3379 15.8333 8.33317 15.8333C8.55086 15.8333 8.76612 15.8229 8.97846 15.8025M11.2495 13.3333H12.4995M11.2495 10.8333H14.5828" stroke="#181818" stroke-width="1.5" stroke-linecap="round" stroke-linejoin="round"/>
</svg>
