<svg width="20" height="20" viewBox="0 0 20 20" fill="none" xmlns="http://www.w3.org/2000/svg">
<path d="M6.99414 11.6667C7.87209 12.1958 8.90074 12.5001 10.0005 12.5001C11.1002 12.5001 12.1288 12.1958 13.0068 11.6667M17.5 10C17.5 14.1421 14.1421 17.5 10 17.5C8.84146 17.5 7.74427 17.2373 6.76474 16.7683C5.34316 17.2305 3.92158 17.5 2.5 17.5C3.29357 16.3096 3.59112 15.2325 3.72336 14.1069C2.94985 12.9271 2.5 11.5161 2.5 10C2.5 5.85786 5.85786 2.5 10 2.5C14.1421 2.5 17.5 5.85786 17.5 10Z" stroke="#181818" stroke-width="1.5" stroke-linecap="round" stroke-linejoin="round"/>
</svg>
