<svg width="20" height="20" viewBox="0 0 20 20" fill="none" xmlns="http://www.w3.org/2000/svg">
<path fill-rule="evenodd" clip-rule="evenodd" d="M13.6252 6.98353L16.9585 4.6002C17.6168 4.1252 18.5002 4.78353 18.2169 5.55853L14.7502 15.2669C14.6335 15.5919 14.3169 15.8169 13.9669 15.8169H6.02518C5.67518 15.8169 5.35852 15.6002 5.24185 15.2669L1.77518 5.55853C1.50018 4.78353 2.38352 4.1252 3.05018 4.59186L6.38352 6.9752C6.82518 7.3002 7.45018 7.10853 7.64185 6.59186L9.22518 2.4002C9.49185 1.6752 10.5168 1.6752 10.7835 2.4002L12.3585 6.6002C12.5502 7.10853 13.1835 7.3002 13.6252 6.98353ZM7.91685 12.2919H12.0835C12.4252 12.2919 12.7085 12.0085 12.7085 11.6669C12.7085 11.3252 12.4252 11.0419 12.0835 11.0419H7.91685C7.57518 11.0419 7.29185 11.3252 7.29185 11.6669C7.29185 12.0085 7.57518 12.2919 7.91685 12.2919Z" fill="#181818"/>
<path d="M5.8335 18.3335H14.1668C14.5085 18.3335 14.7918 18.0502 14.7918 17.7085C14.7918 17.3669 14.5085 17.0835 14.1668 17.0835H5.8335C5.49183 17.0835 5.2085 17.3669 5.2085 17.7085C5.2085 18.0502 5.49183 18.3335 5.8335 18.3335Z" fill="#181818"/>
</svg>
