<svg width="20" height="20" viewBox="0 0 20 20" fill="none" xmlns="http://www.w3.org/2000/svg">
<path d="M16.5249 7.25016L12.7499 3.47516C11.9582 2.6835 10.8666 2.2585 9.7499 2.31683L5.58323 2.51683C3.91656 2.59183 2.59156 3.91683 2.50823 5.57516L2.30823 9.74183C2.25823 10.8585 2.6749 11.9502 3.46656 12.7418L7.24156 16.5168C8.79156 18.0668 11.3082 18.0668 12.8666 16.5168L16.5249 12.8585C18.0832 11.3168 18.0832 8.80016 16.5249 7.25016ZM7.91656 10.3168C6.5999 10.3168 5.51656 9.24183 5.51656 7.91683C5.51656 6.59183 6.5999 5.51683 7.91656 5.51683C9.23323 5.51683 10.3166 6.59183 10.3166 7.91683C10.3166 9.24183 9.23323 10.3168 7.91656 10.3168ZM14.6082 11.2752L11.2749 14.6085C11.1499 14.7335 10.9916 14.7918 10.8332 14.7918C10.6749 14.7918 10.5166 14.7335 10.3916 14.6085C10.1499 14.3668 10.1499 13.9668 10.3916 13.7252L13.7249 10.3918C13.9666 10.1502 14.3666 10.1502 14.6082 10.3918C14.8499 10.6335 14.8499 11.0335 14.6082 11.2752Z" fill="#181818"/>
</svg>
