<svg width="20" height="20" viewBox="0 0 20 20" fill="none" xmlns="http://www.w3.org/2000/svg">
<path d="M6.6665 8.3335H9.99984M6.6665 15.0002L8.33317 13.3335C8.47206 13.7502 8.57725 15.0002 9.1665 15.0002C9.99984 15.0002 10.4165 14.5835 10.8332 14.1668C11.2498 15.0002 11.9998 15.0002 13.3332 15.0002M6.6665 5.00024H13.3332M6.33252 1.66699H13.6659C15.3227 1.66699 16.6659 3.01014 16.6659 4.66699V15.3337C16.6659 16.9905 15.3227 18.3337 13.6659 18.3337H6.33252C4.67566 18.3337 3.33252 16.9905 3.33252 15.3337V4.66699C3.33252 3.01014 4.67567 1.66699 6.33252 1.66699Z" stroke="#181818" stroke-width="1.5" stroke-linecap="round" stroke-linejoin="round"/>
</svg>
