<svg width="20" height="20" viewBox="0 0 20 20" fill="none" xmlns="http://www.w3.org/2000/svg">
<path d="M4.86113 11.6667L2.86827 12.7217C2.64173 12.8417 2.50003 13.077 2.50003 13.3333V13.3333C2.50003 13.5897 2.64173 13.825 2.86828 13.945L9.2151 17.305C9.45692 17.4331 9.72639 17.5 10 17.5V17.5C10.2736 17.5 10.5431 17.4331 10.7849 17.305L17.1318 13.945C17.3583 13.825 17.5 13.5897 17.5 13.3333V13.3333C17.5 13.077 17.3583 12.8417 17.1318 12.7217L15.1389 11.6667M4.1667 8.70097L2.86825 9.38838C2.6417 9.50832 2.5 9.74366 2.5 10V10C2.5 10.2563 2.6417 10.4917 2.86825 10.6116L9.21511 13.9717C9.45694 14.0997 9.72641 14.1666 10 14.1666C10.2736 14.1666 10.5431 14.0997 10.7849 13.9717L17.1318 10.6116C17.3583 10.4917 17.5 10.2563 17.5 10V10C17.5 9.74366 17.3583 9.50832 17.1318 9.38838L15.8334 8.70097M13.3333 6.66667L10 10M10 10L6.66667 6.66667M10 10L10 2.5" stroke="black" stroke-width="1.5" stroke-linecap="round" stroke-linejoin="round"/>
</svg>
