<svg width="20" height="20" viewBox="0 0 20 20" fill="none" xmlns="http://www.w3.org/2000/svg">
<path d="M15.85 2.90005C14.2333 1.28338 12.65 1.24172 10.9916 2.90005L9.98331 3.90838C9.89998 3.99172 9.86665 4.12505 9.89998 4.24172C10.5333 6.45005 12.3 8.21672 14.5083 8.85005C14.5416 8.85838 14.575 8.86672 14.6083 8.86672C14.7 8.86672 14.7833 8.83338 14.85 8.76672L15.85 7.75838C16.675 6.94172 17.075 6.15005 17.075 5.35005C17.0833 4.52505 16.6833 3.72505 15.85 2.90005Z" fill="#181818"/>
<path d="M17.5 18.3334H2.5C2.15833 18.3334 1.875 18.0501 1.875 17.7084C1.875 17.3667 2.15833 17.0834 2.5 17.0834H17.5C17.8417 17.0834 18.125 17.3667 18.125 17.7084C18.125 18.0501 17.8417 18.3334 17.5 18.3334Z" fill="#181818"/>
<path d="M12.3084 9.24172C12.5334 9.37505 12.7668 9.49172 13.0084 9.60838C13.3337 9.74933 13.4279 10.1806 13.1772 10.4313L8.48344 15.1251C8.38344 15.2334 8.1751 15.3334 8.0251 15.3584L4.8251 15.8084C4.7251 15.825 4.6251 15.8334 4.5251 15.8334C4.0751 15.8334 3.65844 15.675 3.35844 15.3834C3.00844 15.0251 2.8501 14.4917 2.93344 13.925L3.38344 10.7334C3.40844 10.5917 3.50844 10.3834 3.61677 10.2751L8.30282 5.589C8.55859 5.33323 8.9888 5.4306 9.14177 5.75838C9.25844 5.99172 9.3751 6.21672 9.50844 6.44172C9.61677 6.62505 9.73344 6.80838 9.83344 6.93338C9.95017 7.11237 10.0814 7.26955 10.1662 7.37101C10.1722 7.37819 10.1779 7.3851 10.1834 7.39172C10.1952 7.40688 10.2063 7.42136 10.2168 7.43496C10.2579 7.4886 10.2885 7.52842 10.3084 7.54172C10.5834 7.87505 10.8918 8.17505 11.1668 8.40838C11.2334 8.47505 11.2918 8.52505 11.3084 8.53338C11.4668 8.66672 11.6334 8.80005 11.7751 8.89172C11.9501 9.01672 12.1251 9.13338 12.3084 9.24172Z" fill="#181818"/>
</svg>
