<svg width="20" height="20" viewBox="0 0 20 20" fill="none" xmlns="http://www.w3.org/2000/svg">
<path d="M16.3782 7.55159C16.7471 7.6605 17.1643 7.40165 17.1188 7.01964C16.8758 4.97511 15.846 4.30866 13.3002 4.30866H11.3169C10.9541 4.30866 10.9421 4.29234 10.7401 4.01756L10.7336 4.00866L9.73356 2.67533C9.25023 2.05033 8.87523 1.66699 7.68356 1.66699H6.70023C3.72523 1.66699 2.81689 2.57533 2.81689 5.55033V7.03855C2.81689 7.41873 3.23127 7.66802 3.59561 7.5594C3.98296 7.44392 4.39289 7.38366 4.80856 7.38366H15.1919C15.6024 7.38366 15.9989 7.43964 16.3782 7.55159Z" fill="#181818"/>
<path fill-rule="evenodd" clip-rule="evenodd" d="M17.4165 9.66699L17.5498 9.85032C17.9748 10.4253 18.1582 11.1253 18.0832 11.8253L17.7748 15.7003L17.7736 15.7132C17.6572 16.8941 17.5153 18.3337 14.8832 18.3337H5.11651C2.47484 18.3337 2.33317 16.8837 2.22484 15.7087L1.91651 11.817C1.84151 11.067 2.06651 10.317 2.54151 9.70865C2.78317 9.40865 3.07484 9.16699 3.39984 8.99199C3.83317 8.75032 4.30817 8.62532 4.80817 8.62532H15.1832C15.6832 8.62532 16.1665 8.75032 16.5915 8.99199C16.9082 9.15865 17.1832 9.38365 17.4165 9.66699ZM7.99984 14.4503H11.9915C12.3165 14.4503 12.5748 14.192 12.5748 13.867C12.5748 13.5503 12.3165 13.2837 11.9915 13.2837H7.99984C7.67484 13.2837 7.41651 13.5503 7.41651 13.867C7.41651 14.1837 7.67484 14.4503 7.99984 14.4503Z" fill="#181818"/>
</svg>
