<svg width="20" height="20" viewBox="0 0 20 20" fill="none" xmlns="http://www.w3.org/2000/svg">
<path d="M4.8415 10.3747C4.11851 10.3747 3.451 10.6179 2.91652 11.0268V10.1497C2.88318 8.21634 3.59152 6.40801 4.92485 5.04967C6.24985 3.69967 8.03318 2.95801 9.95818 2.95801C13.8915 2.95801 17.0832 6.15801 17.0832 10.083V11.0267C16.5487 10.6179 15.8813 10.3747 15.1583 10.3747H15.05C13.3 10.3747 11.875 11.7997 11.875 13.5497V15.1163C11.875 16.8663 13.3 18.2913 15.05 18.2913H15.1583C16.9083 18.2913 18.3333 16.8663 18.3333 15.1163V13.5497C18.3333 13.5393 18.3333 13.5289 18.3332 13.5185V10.083C18.3332 5.46634 14.5748 1.70801 9.95818 1.70801C7.69985 1.70801 5.59985 2.58301 4.03318 4.17467C2.46652 5.77467 1.62485 7.90801 1.66652 10.1663V13.5411L1.6665 13.5497V15.1163C1.6665 16.8663 3.0915 18.2913 4.8415 18.2913H4.94984C6.69984 18.2913 8.12484 16.8663 8.12484 15.1163V13.5497C8.12484 11.7997 6.69984 10.3747 4.94984 10.3747H4.8415Z" fill="#181818"/>
</svg>
