<svg width="20" height="20" viewBox="0 0 20 20" fill="none" xmlns="http://www.w3.org/2000/svg">
<path d="M3.14512 2.85079C5.03772 1.48098 7.79177 1.32503 9.99999 2.75582C12.2082 1.32505 14.9623 1.481 16.8548 2.85082C17.8771 3.59068 18.6464 4.6846 18.931 6.05664C19.2152 7.4266 19.0051 9.01572 18.176 10.7412L18.1709 10.7518C17.268 12.5577 15.8191 13.9919 14.38 15.1645C13.6578 15.753 12.9255 16.2853 12.254 16.7677L12.0233 16.9334C11.4372 17.3538 10.9126 17.7302 10.4685 18.0855C10.1946 18.3047 9.80534 18.3047 9.53142 18.0855C9.08735 17.7302 8.56277 17.3539 7.97674 16.9334L7.74593 16.7677C7.07438 16.2853 6.34216 15.753 5.61994 15.1645C4.18085 13.9919 2.73205 12.5576 1.82914 10.7518L1.82386 10.7412C0.994807 9.01575 0.784771 7.42659 1.06897 6.05662C1.3536 4.68458 2.12289 3.59066 3.14512 2.85079Z" fill="#181818"/>
</svg>
