<svg width="20" height="20" viewBox="0 0 20 20" fill="none" xmlns="http://www.w3.org/2000/svg">
<path d="M17.3581 6.67534L11.8998 2.30867C10.8331 1.45867 9.16647 1.45034 8.10814 2.30034L2.64981 6.67534C1.86647 7.30034 1.39147 8.55034 1.55814 9.53367L2.60814 15.817C2.84981 17.2253 4.15814 18.3337 5.58314 18.3337H14.4165C15.8248 18.3337 17.1581 17.2003 17.3998 15.8087L18.4498 9.52534C18.5998 8.55034 18.1248 7.30034 17.3581 6.67534ZM10.6248 15.0003C10.6248 15.342 10.3415 15.6253 9.99981 15.6253C9.65814 15.6253 9.37481 15.342 9.37481 15.0003V12.5003C9.37481 12.1587 9.65814 11.8753 9.99981 11.8753C10.3415 11.8753 10.6248 12.1587 10.6248 12.5003V15.0003Z" fill="#181818"/>
</svg>
