<svg width="20" height="20" viewBox="0 0 20 20" fill="none" xmlns="http://www.w3.org/2000/svg">
<g clip-path="url(#clip0_1_24225)">
<path d="M12.4995 13.3335C11.8332 13.8521 10.958 14.1668 9.99951 14.1668C9.04098 14.1668 8.16578 13.8521 7.49951 13.3335M18.3332 8.27782V8.27782C18.3332 7.78688 18.108 7.32304 17.7223 7.0193L11.6532 2.23985C11.182 1.86877 10.5996 1.66699 9.99984 1.66699V1.66699C9.40004 1.66699 8.81769 1.86877 8.34647 2.23985L2.27734 7.0193C1.89163 7.32304 1.6665 7.78688 1.6665 8.27782V8.27782C1.6665 8.37656 1.67563 8.47509 1.69378 8.57215L3.06064 15.8849C3.326 17.3046 4.56528 18.3337 6.00957 18.3337H13.9901C15.4344 18.3337 16.6737 17.3046 16.939 15.8849L18.3059 8.57215C18.324 8.47509 18.3332 8.37656 18.3332 8.27782Z" stroke="#181818" stroke-width="1.5" stroke-linecap="round" stroke-linejoin="round"/>
</g>
<defs>
<clipPath id="clip0_1_24225">
<rect width="20" height="20" fill="white"/>
</clipPath>
</defs>
</svg>
