<svg width="21" height="21" viewBox="0 0 21 21" fill="none" xmlns="http://www.w3.org/2000/svg">
<g opacity="0.5">
<path d="M10.3302 11.0683C9.87 11.0683 9.49691 10.6952 9.49691 10.2349C9.49691 9.77471 9.87 9.40161 10.3302 9.40161C10.7905 9.40161 11.1636 9.77471 11.1636 10.2349C11.1636 10.6952 10.7905 11.0683 10.3302 11.0683Z" stroke="white" stroke-width="1.5"/>
<path d="M5.33024 11.0683C4.87 11.0683 4.49691 10.6952 4.49691 10.2349C4.49691 9.77471 4.87 9.40161 5.33024 9.40161C5.79048 9.40161 6.16357 9.77471 6.16357 10.2349C6.16357 10.6952 5.79048 11.0683 5.33024 11.0683Z" stroke="white" stroke-width="1.5"/>
<path d="M15.3302 11.0683C14.87 11.0683 14.4969 10.6952 14.4969 10.2349C14.4969 9.77471 14.87 9.40161 15.3302 9.40161C15.7905 9.40161 16.1636 9.77471 16.1636 10.2349C16.1636 10.6952 15.7905 11.0683 15.3302 11.0683Z" stroke="white" stroke-width="1.5"/>
</g>
</svg>
