<svg width="21" height="21" viewBox="0 0 21 21" fill="none" xmlns="http://www.w3.org/2000/svg">
<path d="M4.93008 2.43494L3.63008 4.16828C3.37259 4.51159 3.24384 4.68325 3.24684 4.82694C3.24944 4.95198 3.30806 5.06924 3.40654 5.14634C3.51969 5.23494 3.73427 5.23494 4.16341 5.23494H16.4967C16.9259 5.23494 17.1405 5.23494 17.2537 5.14634C17.3521 5.06924 17.4107 4.95198 17.4133 4.82694C17.4163 4.68325 17.2876 4.51159 17.0301 4.16828L15.7301 2.43494M4.93008 2.43494C5.07674 2.23939 5.15008 2.14161 5.24301 2.07109C5.32533 2.00863 5.41854 1.96203 5.5179 1.93365C5.63008 1.90161 5.7523 1.90161 5.99674 1.90161H14.6634C14.9078 1.90161 15.0301 1.90161 15.1422 1.93365C15.2416 1.96203 15.3348 2.00863 15.4172 2.07109C15.5101 2.14161 15.5834 2.23939 15.7301 2.43494M4.93008 2.43494L3.36341 4.52383C3.16553 4.78768 3.06659 4.9196 2.99633 5.06488C2.93399 5.19379 2.88851 5.3302 2.86104 5.47074C2.83008 5.62912 2.83008 5.79403 2.83008 6.12383V15.9016C2.83008 16.835 2.83008 17.3018 3.01174 17.6583C3.17152 17.9719 3.42649 18.2269 3.74009 18.3866C4.09661 18.5683 4.56332 18.5683 5.49674 18.5683H15.1634C16.0968 18.5683 16.5636 18.5683 16.9201 18.3866C17.2337 18.2269 17.4887 17.9719 17.6484 17.6583C17.8301 17.3018 17.8301 16.835 17.8301 15.9016V6.12384C17.8301 5.79403 17.8301 5.62912 17.7991 5.47074C17.7717 5.3302 17.7262 5.19379 17.6638 5.06488C17.5936 4.9196 17.4947 4.78768 17.2967 4.52384L15.7301 2.43494M13.6634 8.56828C13.6634 9.45236 13.3122 10.3002 12.6871 10.9253C12.062 11.5504 11.2142 11.9016 10.3301 11.9016C9.44599 11.9016 8.59818 11.5504 7.97305 10.9253C7.34794 10.3002 6.99674 9.45236 6.99674 8.56828" stroke="white" stroke-width="1.5" stroke-linecap="round" stroke-linejoin="round"/>
</svg>
