<svg width="16" height="17" viewBox="0 0 16 17" fill="none" xmlns="http://www.w3.org/2000/svg">
<path d="M14.333 12.5687L9.90441 8.56869M6.09491 8.56869L1.66636 12.5687M1.33301 5.23535L6.77627 9.04562C7.21707 9.35422 7.43747 9.50849 7.67721 9.56822C7.88894 9.62102 8.11041 9.62102 8.32214 9.56822C8.56187 9.50849 8.78227 9.35422 9.22307 9.04562L14.6663 5.23535M4.53301 13.902H11.4663C12.5865 13.902 13.1465 13.902 13.5743 13.684C13.9507 13.4923 14.2566 13.1864 14.4483 12.81C14.6663 12.3822 14.6663 11.8222 14.6663 10.702V6.43535C14.6663 5.31525 14.6663 4.75519 14.4483 4.32737C14.2566 3.95104 13.9507 3.64508 13.5743 3.45334C13.1465 3.23535 12.5865 3.23535 11.4663 3.23535H4.53301C3.4129 3.23535 2.85285 3.23535 2.42503 3.45334C2.0487 3.64508 1.74274 3.95104 1.55099 4.32737C1.33301 4.75519 1.33301 5.31525 1.33301 6.43535V10.702C1.33301 11.8222 1.33301 12.3822 1.55099 12.81C1.74274 13.1864 2.0487 13.4923 2.42503 13.684C2.85285 13.902 3.4129 13.902 4.53301 13.902Z" stroke="white" stroke-width="1.5" stroke-linecap="round" stroke-linejoin="round"/>
</svg>
