<svg width="14" height="15" viewBox="0 0 14 15" fill="none" xmlns="http://www.w3.org/2000/svg">
<path d="M9.66673 4.90169C9.66673 5.60894 9.38579 6.28723 8.88566 6.78729C8.38559 7.28743 7.70733 7.56836 7.00006 7.56836C6.29279 7.56836 5.61453 7.28743 5.11443 6.78729C4.61434 6.28723 4.33339 5.60894 4.33339 4.90169M1.4222 4.50261L0.955532 10.1026C0.855279 11.3056 0.805152 11.9072 1.00851 12.3712C1.18717 12.7788 1.49674 13.1153 1.88817 13.3272C2.3337 13.5684 2.93729 13.5684 4.14448 13.5684H9.85566C11.0628 13.5684 11.6664 13.5684 12.1119 13.3272C12.5034 13.1153 12.8129 12.7788 12.9916 12.3712C13.1949 11.9072 13.1448 11.3056 13.0446 10.1026L12.5779 4.50261C12.4917 3.46753 12.4485 2.94998 12.2193 2.55827C12.0175 2.21332 11.7169 1.93676 11.3564 1.76426C10.947 1.56836 10.4277 1.56836 9.38899 1.56836H4.61115C3.57247 1.56836 3.05313 1.56836 2.64373 1.76425C2.28321 1.93676 1.98265 2.21332 1.7808 2.55827C1.55159 2.94998 1.50845 3.46753 1.4222 4.50261Z" stroke="white" stroke-width="1.5" stroke-linecap="round" stroke-linejoin="round"/>
</svg>
