<svg width="20" height="20" viewBox="0 0 20 20" fill="none" xmlns="http://www.w3.org/2000/svg">
<path d="M10.0002 10.8337C9.53993 10.8337 9.16683 10.4606 9.16683 10.0003C9.16683 9.54009 9.53993 9.16699 10.0002 9.16699C10.4604 9.16699 10.8335 9.54009 10.8335 10.0003C10.8335 10.4606 10.4604 10.8337 10.0002 10.8337Z" stroke="#181818" stroke-width="1.5"/>
<path d="M5.00016 10.8337C4.53992 10.8337 4.16683 10.4606 4.16683 10.0003C4.16683 9.54009 4.53992 9.16699 5.00016 9.16699C5.4604 9.16699 5.8335 9.54009 5.8335 10.0003C5.8335 10.4606 5.4604 10.8337 5.00016 10.8337Z" stroke="#181818" stroke-width="1.5"/>
<path d="M15.0002 10.8337C14.5399 10.8337 14.1668 10.4606 14.1668 10.0003C14.1668 9.54009 14.5399 9.16699 15.0002 9.16699C15.4604 9.16699 15.8335 9.54009 15.8335 10.0003C15.8335 10.4606 15.4604 10.8337 15.0002 10.8337Z" stroke="#181818" stroke-width="1.5"/>
</svg>
