<svg width="20" height="20" viewBox="0 0 20 20" fill="none" xmlns="http://www.w3.org/2000/svg">
<path d="M17.5 13L17.5 2.5L8.33333 5.83333L8.33333 15M17.5 13C17.5 14.3807 16.1942 15.5 14.5833 15.5C12.9725 15.5 11.6667 14.3807 11.6667 13C11.6667 11.6193 12.9725 10.5 14.5833 10.5C16.1942 10.5 17.5 11.6193 17.5 13ZM8.33333 15C8.33333 16.3807 7.0275 17.5 5.41667 17.5C3.80584 17.5 2.5 16.3807 2.5 15C2.5 13.6193 3.80584 12.5 5.41667 12.5C7.0275 12.5 8.33333 13.6193 8.33333 15Z" stroke="#181818" stroke-width="1.5" stroke-linecap="round" stroke-linejoin="round"/>
</svg>
