<svg width="20" height="20" viewBox="0 0 20 20" fill="none" xmlns="http://www.w3.org/2000/svg">
<path d="M18.0998 5.23298V6.20798C18.0998 7.02464 17.7748 7.72464 17.1998 8.13298C16.8414 8.39964 16.3998 8.52464 15.9414 8.52464C15.6581 8.52464 15.3748 8.48298 15.0831 8.38298L10.5998 6.89131V14.9996C10.5998 17.183 8.82477 18.958 6.64144 18.958C4.45811 18.958 2.68311 17.183 2.68311 14.9996C2.68311 12.8163 4.45811 11.0413 6.64144 11.0413C7.69144 11.0413 8.64144 11.458 9.34977 12.1246V3.33298C9.34977 2.52464 9.68311 1.82464 10.2581 1.40798C10.8331 0.999643 11.5998 0.907976 12.3664 1.15798L16.0498 2.39131C17.1831 2.76631 18.0998 4.04131 18.0998 5.23298Z" fill="#181818"/>
</svg>
