<svg width="20" height="20" viewBox="0 0 20 20" fill="none" xmlns="http://www.w3.org/2000/svg">
<path d="M11.7309 6.58686L11.1539 6.15417C10.8353 5.91522 10.4177 5.79574 10.0002 5.79573M8.26936 10.9137L8.84627 11.3464C9.16491 11.5854 9.58254 11.7049 10.0002 11.7049M10.0002 5.79573V5.00032M10.0002 5.79573C9.58253 5.79571 9.1649 5.9152 8.84626 6.15418C8.20901 6.63211 8.209 7.407 8.84624 7.88494L10.0001 8.75031L11.154 9.61567C11.7912 10.0936 11.7912 10.8685 11.154 11.3464C10.8354 11.5854 10.4178 11.7049 10.0002 11.7049M10.0002 12.5003V11.7049M3.3335 18.3337V4.66699C3.3335 3.01014 4.67664 1.66699 6.3335 1.66699H13.6668C15.3237 1.66699 16.6668 3.01014 16.6668 4.66699V18.3337L13.3335 15.8337L10.0002 18.3337L6.66683 15.8337L3.3335 18.3337Z" stroke="#181818" stroke-width="1.5" stroke-linecap="round" stroke-linejoin="round"/>
</svg>
