<svg width="20" height="20" viewBox="0 0 20 20" fill="none" xmlns="http://www.w3.org/2000/svg">
<path d="M4.16699 8.33358V8.00024C4.16699 6.34339 5.51014 5.00024 7.167 5.00024H12.8337C14.4905 5.00024 15.8337 6.34339 15.8337 8.00024V8.33358M5.83301 5.00033V4.66699C5.83301 3.01014 7.17615 1.66699 8.83301 1.66699H11.1663C12.8232 1.66699 14.1663 3.01014 14.1663 4.66699V5.00033M9.99967 11.667V13.3337M9.99967 13.3337V15.0003M9.99967 13.3337H11.6663M9.99967 13.3337L8.33301 13.3337M14.5 18.3335H5.5C3.84315 18.3335 2.5 16.9904 2.5 15.3335V11.3335C2.5 9.67664 3.84315 8.3335 5.5 8.3335H14.5C16.1569 8.3335 17.5 9.67664 17.5 11.3335V15.3335C17.5 16.9904 16.1569 18.3335 14.5 18.3335Z" stroke="#181818" stroke-width="1.5" stroke-linecap="round" stroke-linejoin="round"/>
</svg>
