<svg width="20" height="20" viewBox="0 0 20 20" fill="none" xmlns="http://www.w3.org/2000/svg">
<path d="M6.6665 8.33366L6.6665 18.3337M17.8715 7.87195V7.87195C17.6335 7.634 17.3108 7.50033 16.9743 7.50033H13.1435C12.4361 7.50033 11.957 6.78384 12.1149 6.09423C12.4037 4.83344 12.3383 3.66678 11.9186 2.36333C11.7816 1.93771 11.3733 1.66699 10.9262 1.66699V1.66699C10.3916 1.66699 9.94107 2.05492 9.8208 2.57576C9.37956 4.4865 8.58338 5.97315 6.96455 7.9711C6.77771 8.20169 6.49491 8.33366 6.19813 8.33366H4.6665C3.00965 8.33366 1.6665 9.6768 1.6665 11.3337V15.3337C1.6665 16.9905 3.00965 18.3337 4.6665 18.3337H14.1251C15.5916 18.3337 16.8432 17.2734 17.0843 15.8269L18.2258 8.97773C18.2932 8.57354 18.1612 8.1617 17.8715 7.87195Z" stroke="#181818" stroke-width="1.5" stroke-linecap="round" stroke-linejoin="round"/>
</svg>
