<svg width="20" height="20" viewBox="0 0 20 20" fill="none" xmlns="http://www.w3.org/2000/svg">
<path d="M3.5415 5.62533C3.5415 3.44199 5.3165 1.66699 7.49984 1.66699C9.68317 1.66699 11.4582 3.44199 11.4582 5.62533C11.4498 7.76699 9.77484 9.50033 7.6415 9.57533H7.58317C7.53317 9.56699 7.4665 9.56699 7.39984 9.57533C5.2165 9.50033 3.5415 7.76699 3.5415 5.62533Z" fill="#181818"/>
<path d="M3.27497 11.792C5.61663 10.242 9.4083 10.242 11.7333 11.792C12.7833 12.492 13.3583 13.442 13.3666 14.467C13.3666 15.5003 12.7833 16.4503 11.7333 17.1587C10.5666 17.942 9.0333 18.3337 7.49997 18.3337C5.96663 18.3337 4.4333 17.942 3.26663 17.1587C2.21663 16.4587 1.6333 15.5087 1.6333 14.4837C1.6333 13.4587 2.21663 12.5003 3.27497 11.792Z" fill="#181818"/>
<path d="M16.6583 6.11701C16.7916 7.73368 15.6416 9.15035 14.05 9.34201H14.0083C13.9583 9.34201 13.9083 9.34201 13.8666 9.35868C13.0583 9.40035 12.3166 9.14201 11.7583 8.66701C12.6166 7.90035 13.1083 6.75035 13.0083 5.50035C12.95 4.82535 12.7166 4.20868 12.3666 3.68368C12.6833 3.52535 13.05 3.42535 13.425 3.39201C15.0583 3.25035 16.5166 4.46701 16.6583 6.11701Z" fill="#181818"/>
<path d="M16.8749 15.8087C17.7415 15.3337 18.2582 14.6337 18.3249 13.8254C18.3999 13.0254 18.0082 12.2504 17.2415 11.6337C15.8165 10.4837 13.4999 10.1254 11.6582 10.6587C12.3665 10.917 13.0165 11.267 13.5749 11.7087C14.5582 12.5004 15.0499 13.492 14.9665 14.5254C14.8999 15.242 14.5499 15.917 13.9499 16.4587C14.9915 16.4837 16.0415 16.267 16.8749 15.8087Z" fill="#181818"/>
</svg>
