<svg width="20" height="20" viewBox="0 0 20 20" fill="none" xmlns="http://www.w3.org/2000/svg">
<path d="M3.33317 13.3337V4.66699C3.33317 3.01014 4.67631 1.66699 6.33317 1.66699H9.99984M9.99984 1.66699V5.33366C9.99984 6.99051 11.343 8.33366 12.9998 8.33366H16.6665M9.99984 1.66699H10.4239C11.2195 1.66699 11.9826 1.98306 12.5452 2.54567L15.7878 5.78831C16.3504 6.35092 16.6665 7.11398 16.6665 7.90963V8.33366M16.6665 8.33366V15.3337C16.6665 16.9905 15.3234 18.3337 13.6665 18.3337H11.6665M6.6665 14.167V13.3337M6.6665 14.167L5.45274 16.1899C4.88667 17.1334 5.56626 18.3337 6.6665 18.3337V18.3337C7.76675 18.3337 8.44633 17.1334 7.88026 16.1899L6.6665 14.167ZM6.6665 10.0003V9.16699M6.6665 5.83366V5.00033" stroke="#181818" stroke-width="1.5" stroke-linecap="round" stroke-linejoin="round"/>
</svg>
