<svg width="219" height="50" viewBox="0 0 219 50" fill="none" xmlns="http://www.w3.org/2000/svg">
<g clip-path="url(#clip0_536_3783)">
<path d="M25.3148 0C11.6321 0 0.5 11.1129 0.5 24.7721C0.5 38.4313 11.6321 49.5442 25.3148 49.5442C38.9976 49.5442 50.1296 38.4313 50.1296 24.7721C50.1296 11.1129 38.9989 0 25.3148 0ZM25.3148 45.7337C13.7367 45.7337 4.31707 36.3303 4.31707 24.7721C4.31707 13.2139 13.7367 3.81178 25.3148 3.81178C36.8929 3.81178 46.3126 13.2152 46.3126 24.7734C46.3126 36.3315 36.8929 45.735 25.3148 45.735V45.7337Z" fill="#181818"/>
<path fill-rule="evenodd" clip-rule="evenodd" d="M34.1573 10.3593C34.2752 10.4483 34.3709 10.5636 34.4367 10.6959C34.5025 10.8282 34.5367 10.974 34.5366 11.1218V29.0119C34.5365 29.8417 34.266 30.6489 33.7662 31.3114C33.2664 31.9738 32.5644 32.4554 31.7665 32.6833L30.0861 33.1633C29.6738 33.287 29.2411 33.3276 28.813 33.2828C28.385 33.2379 27.9701 33.1085 27.5924 32.9019C27.2148 32.6954 26.8819 32.416 26.6132 32.0798C26.3444 31.7436 26.1451 31.3573 26.0268 30.9435C25.9085 30.5297 25.8736 30.0964 25.9242 29.669C25.9747 29.2415 26.1096 28.8284 26.321 28.4535C26.5325 28.0786 26.8164 27.7495 27.1561 27.4852C27.4958 27.2209 27.8846 27.0267 28.3 26.9139L31.242 26.0737C31.641 25.9597 31.992 25.7189 32.2419 25.3877C32.4918 25.0565 32.627 24.6529 32.6271 24.238V17.1611L21.1697 20.4354V32.831C21.1695 33.6608 20.8991 34.4681 20.3993 35.1305C19.8994 35.7929 19.1975 36.2745 18.3995 36.5025L16.7191 36.9824C16.3064 37.1078 15.8728 37.1498 15.4436 37.1059C15.0144 37.062 14.5983 36.9331 14.2195 36.7268C13.8406 36.5204 13.5067 36.2407 13.2371 35.9039C12.9675 35.5671 12.7676 35.18 12.6491 34.7652C12.5307 34.3504 12.496 33.9162 12.547 33.4878C12.5981 33.0594 12.734 32.6455 12.9467 32.2702C13.1594 31.8949 13.4447 31.5657 13.7859 31.3018C14.1272 31.0379 14.5176 30.8445 14.9343 30.733L17.8751 29.8928C18.274 29.7789 18.625 29.538 18.8749 29.2068C19.1248 28.8756 19.26 28.472 19.2601 28.0571V14.9409C19.2602 14.7335 19.3278 14.5317 19.4527 14.3661C19.5777 14.2005 19.7532 14.0801 19.9527 14.0231L33.3196 10.2039C33.4617 10.1632 33.6114 10.156 33.7567 10.183C33.9021 10.2099 34.0392 10.2703 34.1573 10.3593Z" fill="#181818"/>
<path d="M206.362 33.0302V15.6143H218.097V18.6501H210.044V22.8H217.494V25.8359H210.044V29.9943H218.131V33.0302H206.362Z" fill="#181818"/>
<path d="M190.647 33.0302V15.6143H197.518C198.833 15.6143 199.956 15.8495 200.886 16.3201C201.821 16.785 202.533 17.4454 203.02 18.3015C203.513 19.1519 203.76 20.1525 203.76 21.3034C203.76 22.4599 203.511 23.4549 203.012 24.2882C202.513 25.1159 201.79 25.7509 200.843 26.1931C199.902 26.6353 198.763 26.8564 197.425 26.8564H192.824V23.8971H196.829C197.532 23.8971 198.116 23.8007 198.581 23.6079C199.046 23.4152 199.392 23.126 199.619 22.7405C199.851 22.355 199.967 21.876 199.967 21.3034C199.967 20.7251 199.851 20.2375 199.619 19.8407C199.392 19.4438 199.043 19.1434 198.573 18.9393C198.108 18.7295 197.521 18.6246 196.812 18.6246H194.329V33.0302H190.647ZM200.052 25.1046L204.381 33.0302H200.316L196.081 25.1046H200.052Z" fill="#181818"/>
<path d="M187.919 24.3221C187.919 26.2213 187.559 27.837 186.839 29.1693C186.125 30.5016 185.15 31.5192 183.914 32.2222C182.684 32.9195 181.301 33.2682 179.764 33.2682C178.216 33.2682 176.827 32.9167 175.597 32.2137C174.367 31.5107 173.395 30.4931 172.68 29.1608C171.966 27.8285 171.609 26.2156 171.609 24.3221C171.609 22.4229 171.966 20.8071 172.68 19.4749C173.395 18.1426 174.367 17.1278 175.597 16.4305C176.827 15.7275 178.216 15.376 179.764 15.376C181.301 15.376 182.684 15.7275 183.914 16.4305C185.15 17.1278 186.125 18.1426 186.839 19.4749C187.559 20.8071 187.919 22.4229 187.919 24.3221ZM184.186 24.3221C184.186 23.0918 184.002 22.0544 183.633 21.2096C183.271 20.3649 182.758 19.7243 182.094 19.2878C181.431 18.8512 180.654 18.633 179.764 18.633C178.874 18.633 178.097 18.8512 177.434 19.2878C176.771 19.7243 176.255 20.3649 175.886 21.2096C175.524 22.0544 175.342 23.0918 175.342 24.3221C175.342 25.5523 175.524 26.5898 175.886 27.4345C176.255 28.2792 176.771 28.9198 177.434 29.3564C178.097 29.7929 178.874 30.0112 179.764 30.0112C180.654 30.0112 181.431 29.7929 182.094 29.3564C182.758 28.9198 183.271 28.2792 183.633 27.4345C184.002 26.5898 184.186 25.5523 184.186 24.3221Z" fill="#181818"/>
<path d="M156.051 18.6501V15.6143H170.355V18.6501H165.023V33.0302H161.383V18.6501H156.051Z" fill="#181818"/>
<path d="M150.47 20.6229C150.402 19.9369 150.11 19.404 149.594 19.0241C149.078 18.6443 148.378 18.4544 147.494 18.4544C146.893 18.4544 146.386 18.5394 145.972 18.7095C145.558 18.8739 145.24 19.1035 145.019 19.3983C144.804 19.6931 144.696 20.0276 144.696 20.4018C144.685 20.7136 144.75 20.9857 144.892 21.2182C145.039 21.4506 145.24 21.6519 145.495 21.8219C145.751 21.9863 146.045 22.1309 146.38 22.2556C146.714 22.3747 147.072 22.4767 147.451 22.5618L149.016 22.9359C149.776 23.106 150.473 23.3328 151.108 23.6163C151.743 23.8997 152.293 24.2484 152.758 24.6622C153.223 25.0761 153.583 25.5636 153.838 26.1249C154.099 26.6862 154.232 27.3296 154.237 28.0553C154.232 29.1211 153.96 30.0452 153.421 30.8276C152.888 31.6042 152.117 32.208 151.108 32.6389C150.105 33.0641 148.894 33.2767 147.477 33.2767C146.071 33.2767 144.846 33.0612 143.803 32.6304C142.766 32.1995 141.955 31.5617 141.371 30.717C140.793 29.8666 140.49 28.815 140.461 27.5621H144.024C144.064 28.146 144.231 28.6335 144.526 29.0247C144.827 29.4102 145.226 29.7022 145.725 29.9006C146.23 30.0934 146.799 30.1898 147.434 30.1898C148.058 30.1898 148.599 30.0991 149.059 29.9176C149.523 29.7362 149.883 29.4839 150.139 29.1608C150.394 28.8376 150.521 28.4663 150.521 28.0468C150.521 27.6556 150.405 27.3268 150.173 27.0603C149.946 26.7939 149.611 26.5671 149.169 26.38C148.733 26.1929 148.197 26.0229 147.562 25.8698L145.666 25.3936C144.197 25.0364 143.038 24.478 142.187 23.7183C141.337 22.9586 140.915 21.9353 140.92 20.6484C140.915 19.5939 141.195 18.6727 141.762 17.8846C142.335 17.0966 143.12 16.4815 144.118 16.0393C145.116 15.5971 146.249 15.376 147.519 15.376C148.812 15.376 149.94 15.5971 150.904 16.0393C151.873 16.4815 152.627 17.0966 153.166 17.8846C153.705 18.6727 153.982 19.5854 153.999 20.6229H150.47Z" fill="#181818"/>
<path d="M132.84 21.7114H129.115C129.047 21.2295 128.908 20.8015 128.698 20.4273C128.489 20.0475 128.219 19.7243 127.89 19.4578C127.562 19.1914 127.182 18.9873 126.751 18.8456C126.326 18.7038 125.864 18.633 125.365 18.633C124.463 18.633 123.678 18.8569 123.009 19.3048C122.34 19.747 121.821 20.3933 121.453 21.2437C121.084 22.0884 120.9 23.1145 120.9 24.3221C120.9 25.5636 121.084 26.6068 121.453 27.4515C121.827 28.2962 122.349 28.934 123.018 29.3649C123.687 29.7957 124.46 30.0112 125.339 30.0112C125.832 30.0112 126.289 29.946 126.708 29.8156C127.134 29.6852 127.511 29.4953 127.839 29.2458C128.168 28.9907 128.44 28.6817 128.656 28.3189C128.877 27.9561 129.03 27.5422 129.115 27.0773L132.84 27.0943C132.743 27.8937 132.502 28.6647 132.117 29.4074C131.737 30.1444 131.224 30.8049 130.578 31.3888C129.937 31.9671 129.172 32.4263 128.282 32.7664C127.397 33.1009 126.397 33.2682 125.28 33.2682C123.726 33.2682 122.337 32.9167 121.113 32.2137C119.894 31.5107 118.93 30.4931 118.221 29.1608C117.518 27.8285 117.167 26.2156 117.167 24.3221C117.167 22.4229 117.524 20.8071 118.238 19.4749C118.953 18.1426 119.922 17.1278 121.147 16.4305C122.371 15.7275 123.749 15.376 125.28 15.376C126.289 15.376 127.224 15.5177 128.086 15.8012C128.953 16.0846 129.722 16.4985 130.391 17.0427C131.06 17.5813 131.604 18.2418 132.023 19.0241C132.448 19.8065 132.721 20.7023 132.84 21.7114Z" fill="#181818"/>
<path d="M114.443 15.6143V33.0302H110.761V15.6143H114.443Z" fill="#181818"/>
<path d="M104.517 20.6229C104.449 19.9369 104.157 19.404 103.641 19.0241C103.126 18.6443 102.425 18.4544 101.541 18.4544C100.94 18.4544 100.433 18.5394 100.019 18.7095C99.605 18.8739 99.2875 19.1035 99.0664 19.3983C98.851 19.6931 98.7432 20.0276 98.7432 20.4018C98.7319 20.7136 98.7971 20.9857 98.9388 21.2182C99.0862 21.4506 99.2875 21.6519 99.5426 21.8219C99.7977 21.9863 100.093 22.1309 100.427 22.2556C100.761 22.3747 101.119 22.4767 101.499 22.5618L103.063 22.9359C103.823 23.106 104.52 23.3328 105.155 23.6163C105.79 23.8997 106.34 24.2484 106.805 24.6622C107.27 25.0761 107.63 25.5636 107.885 26.1249C108.146 26.6862 108.279 27.3296 108.285 28.0553C108.279 29.1211 108.007 30.0452 107.468 30.8276C106.935 31.6042 106.164 32.208 105.155 32.6389C104.152 33.0641 102.941 33.2767 101.524 33.2767C100.118 33.2767 98.8935 33.0612 97.8503 32.6304C96.8129 32.1995 96.0022 31.5617 95.4182 30.717C94.84 29.8666 94.5366 28.815 94.5083 27.5621H98.0714C98.1111 28.146 98.2784 28.6335 98.5732 29.0247C98.8736 29.4102 99.2733 29.7022 99.7722 29.9006C100.277 30.0934 100.847 30.1898 101.481 30.1898C102.105 30.1898 102.647 30.0991 103.106 29.9176C103.571 29.7362 103.931 29.4839 104.186 29.1608C104.441 28.8376 104.568 28.4663 104.568 28.0468C104.568 27.6556 104.452 27.3268 104.22 27.0603C103.993 26.7939 103.658 26.5671 103.216 26.38C102.78 26.1929 102.244 26.0229 101.609 25.8698L99.7127 25.3936C98.2443 25.0364 97.085 24.478 96.2346 23.7183C95.3842 22.9586 94.9618 21.9353 94.9675 20.6484C94.9618 19.5939 95.2425 18.6727 95.8094 17.8846C96.382 17.0966 97.1672 16.4815 98.165 16.0393C99.1628 15.5971 100.297 15.376 101.567 15.376C102.859 15.376 103.987 15.5971 104.951 16.0393C105.921 16.4815 106.675 17.0966 107.213 17.8846C107.752 18.6727 108.029 19.5854 108.046 20.6229H104.517Z" fill="#181818"/>
<path d="M88.3578 15.6143H92.04V26.9244C92.04 28.1944 91.7366 29.3055 91.13 30.258C90.5291 31.2104 89.6872 31.9531 88.6044 32.486C87.5216 33.0132 86.2601 33.2768 84.8201 33.2768C83.3745 33.2768 82.1102 33.0132 81.0274 32.486C79.9446 31.9531 79.1027 31.2104 78.5018 30.258C77.9008 29.3055 77.6003 28.1944 77.6003 26.9244V15.6143H81.2825V26.6098C81.2825 27.2731 81.4271 27.8627 81.7162 28.3786C82.011 28.8945 82.4249 29.2999 82.9578 29.5947C83.4907 29.8895 84.1115 30.0369 84.8201 30.0369C85.5345 30.0369 86.1553 29.8895 86.6825 29.5947C87.2154 29.2999 87.6264 28.8945 87.9156 28.3786C88.2104 27.8627 88.3578 27.2731 88.3578 26.6098V15.6143Z" fill="#181818"/>
<path d="M55.688 15.6143H60.2291L65.0253 27.3156H65.2294L70.0256 15.6143H74.5666V33.0302H70.995V21.6945H70.8504L66.3434 32.9452H63.9113L59.4042 21.652H59.2596V33.0302H55.688V15.6143Z" fill="#181818"/>
</g>
<defs>
<clipPath id="clip0_536_3783">
<rect width="218" height="49.5455" fill="white" transform="translate(0.5)"/>
</clipPath>
</defs>
</svg>

