<svg width="20" height="20" viewBox="0 0 20 20" fill="none" xmlns="http://www.w3.org/2000/svg">
<path d="M9.99984 1.66699C5.39984 1.66699 1.6665 5.40033 1.6665 10.0003C1.6665 14.6003 5.39984 18.3337 9.99984 18.3337C14.5998 18.3337 18.3332 14.6003 18.3332 10.0003C18.3332 5.40033 14.5998 1.66699 9.99984 1.66699ZM5.62484 11.7837C5.62484 12.1253 5.3415 12.4087 4.99984 12.4087C4.65817 12.4087 4.37484 12.1253 4.37484 11.7837V8.21699C4.37484 7.87533 4.65817 7.59199 4.99984 7.59199C5.3415 7.59199 5.62484 7.87533 5.62484 8.21699V11.7837ZM8.12484 12.9753C8.12484 13.317 7.8415 13.6003 7.49984 13.6003C7.15817 13.6003 6.87484 13.317 6.87484 12.9753V7.02533C6.87484 6.68366 7.15817 6.40033 7.49984 6.40033C7.8415 6.40033 8.12484 6.68366 8.12484 7.02533V12.9753ZM10.6248 14.167C10.6248 14.5087 10.3415 14.792 9.99984 14.792C9.65817 14.792 9.37484 14.5087 9.37484 14.167V5.83366C9.37484 5.49199 9.65817 5.20866 9.99984 5.20866C10.3415 5.20866 10.6248 5.49199 10.6248 5.83366V14.167ZM13.1248 12.9753C13.1248 13.317 12.8415 13.6003 12.4998 13.6003C12.1582 13.6003 11.8748 13.317 11.8748 12.9753V7.02533C11.8748 6.68366 12.1582 6.40033 12.4998 6.40033C12.8415 6.40033 13.1248 6.68366 13.1248 7.02533V12.9753ZM15.6248 11.7837C15.6248 12.1253 15.3415 12.4087 14.9998 12.4087C14.6582 12.4087 14.3748 12.1253 14.3748 11.7837V8.21699C14.3748 7.87533 14.6582 7.59199 14.9998 7.59199C15.3415 7.59199 15.6248 7.87533 15.6248 8.21699V11.7837Z" fill="#181818"/>
</svg>
