<svg width="20" height="20" viewBox="0 0 20 20" fill="none" xmlns="http://www.w3.org/2000/svg">
<path d="M10.0005 5.8335V8.3335M10.0005 8.3335V10.8335M10.0005 8.3335H12.5005M10.0005 8.3335H7.50049M11.4842 15.5209L14.6622 18.0633C14.881 18.2383 15.1528 18.3337 15.433 18.3337V18.3337C16.1144 18.3337 16.6668 17.7812 16.6668 17.0998V4.66699C16.6668 3.01014 15.3237 1.66699 13.6668 1.66699H6.3335C4.67664 1.66699 3.3335 3.01014 3.3335 4.66699V17.0998C3.3335 17.7812 3.88591 18.3337 4.56735 18.3337V18.3337C4.84752 18.3337 5.11935 18.2383 5.33813 18.0633L8.5161 15.5209C8.93734 15.1839 9.46072 15.0003 10.0002 15.0003V15.0003C10.5396 15.0003 11.063 15.1839 11.4842 15.5209Z" stroke="#181818" stroke-width="1.5" stroke-linecap="round" stroke-linejoin="round"/>
</svg>
