<svg width="20" height="20" viewBox="0 0 20 20" fill="none" xmlns="http://www.w3.org/2000/svg">
<path d="M7.5 4.16667H15.0604C16.3225 4.16667 17.2691 5.32131 17.0216 6.5589L16.1549 10.8922C15.9679 11.8271 15.1471 12.5 14.1937 12.5H5.66667M2.5 2.5L3.50197 3.50197C3.93473 3.93473 4.22478 4.48949 4.3332 5.09183L5.66667 12.5M15.8333 15H5.83333M15.8333 15C15.143 15 14.5833 15.5596 14.5833 16.25C14.5833 16.9404 15.143 17.5 15.8333 17.5C16.5237 17.5 17.0833 16.9404 17.0833 16.25C17.0833 15.5596 16.5237 15 15.8333 15ZM5.83333 15C5.09984 15 4.64678 14.1998 5.02416 13.5708L5.66667 12.5M5.83333 15C5.14298 15 4.58333 15.5596 4.58333 16.25C4.58333 16.9404 5.14298 17.5 5.83333 17.5C6.52369 17.5 7.08333 16.9404 7.08333 16.25C7.08333 15.5596 6.52369 15 5.83333 15Z" stroke="black" stroke-width="1.5" stroke-linecap="round" stroke-linejoin="round"/>
</svg>
