<svg width="20" height="20" viewBox="0 0 20 20" fill="none" xmlns="http://www.w3.org/2000/svg">
<g clip-path="url(#clip0_1_24233)">
<path d="M15.8836 15.9022C14.1894 14.8044 12.1693 14.167 10.0003 14.167C7.83133 14.167 5.8112 14.8044 4.11707 15.9022M15.8836 15.9022C17.3971 14.3934 18.3337 12.3062 18.3337 10.0003C18.3337 5.39795 14.6027 1.66699 10.0003 1.66699C5.39795 1.66699 1.66699 5.39795 1.66699 10.0003C1.66699 12.3062 2.60357 14.3934 4.11707 15.9022M15.8836 15.9022C14.3763 17.4047 12.2968 18.3337 10.0003 18.3337C7.70387 18.3337 5.62437 17.4047 4.11707 15.9022M10.0003 14.167L8.33366 9.16699M3.33366 10.0003H1.66699M5.28597 5.28628L4.10746 4.10776M10.0003 1.66699V3.33366M14.7147 5.28628L15.8932 4.10776M18.3337 10.0003H16.667" stroke="#181818" stroke-width="1.5" stroke-linecap="round"/>
</g>
<defs>
<clipPath id="clip0_1_24233">
<rect width="20" height="20" fill="white"/>
</clipPath>
</defs>
</svg>
