<svg width="20" height="20" viewBox="0 0 20 20" fill="none" xmlns="http://www.w3.org/2000/svg">
<path d="M8.99732 5.21508L7.92064 11.5236C7.68836 12.8846 8.60338 14.1762 9.96442 14.4085L11.9541 14.7481M8.99732 5.21508L9.18243 4.13048C9.41471 2.76945 10.7064 1.85442 12.0674 2.0867L16.1747 2.7877C17.5357 3.01998 18.4507 4.31162 18.2184 5.67266L16.9567 13.0658C16.7244 14.4268 15.4327 15.3418 14.0717 15.1095L11.9541 14.7481M8.99732 5.21508L4.64469 5.74553C3 5.94597 1.82921 7.44173 2.02964 9.08642L2.81598 15.5387C3.01642 17.1834 4.51218 18.3542 6.15687 18.1537L9.61865 17.7318C11.0875 17.5528 12.1331 16.217 11.9541 14.7481V14.7481M15.8337 5.64958L11.667 4.98291M13.3333 8.24935L11.25 7.91602" stroke="#181818" stroke-width="1.5" stroke-linecap="round" stroke-linejoin="round"/>
</svg>
