<svg width="20" height="20" viewBox="0 0 20 20" fill="none" xmlns="http://www.w3.org/2000/svg">
<path fill-rule="evenodd" clip-rule="evenodd" d="M4.99984 1.66699H14.9998C14.0832 1.66699 13.3332 2.41699 13.3332 3.33366V17.5003C13.3332 18.1837 12.5498 18.5753 11.9998 18.167L10.5748 17.1003C10.2498 16.8503 9.78317 16.8837 9.4915 17.1753L8.0915 18.5753C7.7665 18.9003 7.23317 18.9003 6.90817 18.5753L5.52484 17.1837C5.22484 16.8837 4.75817 16.8503 4.42484 17.1003L2.99984 18.167C2.44984 18.5837 1.6665 18.192 1.6665 17.5003V5.00033C1.6665 3.15866 2.49984 1.66699 4.99984 1.66699ZM5.62484 11.4587H9.37484C9.7165 11.4587 9.99984 11.1753 9.99984 10.8337C9.99984 10.492 9.7165 10.2087 9.37484 10.2087H5.62484C5.28317 10.2087 4.99984 10.492 4.99984 10.8337C4.99984 11.1753 5.28317 11.4587 5.62484 11.4587ZM4.99984 8.12533H9.99984C10.3415 8.12533 10.6248 7.84199 10.6248 7.50033C10.6248 7.15866 10.3415 6.87533 9.99984 6.87533H4.99984C4.65817 6.87533 4.37484 7.15866 4.37484 7.50033C4.37484 7.84199 4.65817 8.12533 4.99984 8.12533Z" fill="#181818"/>
<path fill-rule="evenodd" clip-rule="evenodd" d="M13.3335 3.34199C13.3335 2.41699 14.0835 1.66699 15.0085 1.66699C15.9252 1.67533 16.7502 2.04199 17.3585 2.64199C17.9585 3.25033 18.3335 4.08366 18.3335 5.00033V7.01699C18.3335 8.33366 17.5002 9.16699 16.1835 9.16699H13.3335V3.34199ZM16.4668 3.51699C16.0835 3.14199 15.5585 2.91699 15.0085 2.91699C14.7752 2.91699 14.5835 3.10866 14.5835 3.34199V7.91699H16.1835C16.8085 7.91699 17.0835 7.63366 17.0835 7.01699V5.00033C17.0835 4.45033 16.8668 3.92533 16.4668 3.51699Z" fill="#181818"/>
</svg>
