<svg width="20" height="20" viewBox="0 0 20 20" fill="none" xmlns="http://www.w3.org/2000/svg">
<path d="M6.66667 6.66688L5.26882 3.1723C5.10574 2.76459 5.20132 2.29892 5.51181 1.98841V1.98841C5.71768 1.78254 5.99704 1.66512 6.2881 1.67196C7.25047 1.69456 8.08714 1.79659 8.85185 2.05864M6.66667 6.66688C9.07551 7.63092 10.5353 8.26575 13.3333 6.66688M6.66667 6.66688C6.58041 6.69563 6.7509 6.63425 6.66667 6.66688ZM6.66667 6.66688C4.3094 7.58011 2.5 10.0721 2.5 12.0836C2.5 15.5353 5.85786 18.3336 10 18.3336C14.1421 18.3336 17.5 15.5353 17.5 12.0836C17.5 10.0002 15.8333 7.50022 13.3333 6.66688M13.3333 6.66688L14.7 3.2501C14.882 2.79517 14.7754 2.27557 14.4289 1.92911V1.92911C14.2579 1.75812 14.0406 1.63994 13.8023 1.5993C12.3971 1.3598 10.6726 1.31582 8.85185 2.05864M13.3333 6.66688C13.75 6.25021 16.1667 4.50027 17.5 4.16693M13.3333 6.66688C15.8333 6.25027 16.6667 6.66694 17.5 7.0836M8.85185 2.05864C9.58855 2.31109 10.4167 2.91693 10.8333 3.75027M13.3333 11.6669C12.9648 11.8143 12.3304 12.1338 11.6667 12.6004M11.6667 12.6004C11.0795 13.0132 10.4694 13.5411 10 14.1669M11.6667 12.6004C11.0029 12.1338 10.3685 11.8143 10 11.6669M11.6667 12.6004C12.2538 13.0132 12.864 13.5411 13.3333 14.1669" stroke="#181818" stroke-width="1.5" stroke-linecap="round" stroke-linejoin="round"/>
</svg>
