<svg width="20" height="20" viewBox="0 0 20 20" fill="none" xmlns="http://www.w3.org/2000/svg">
<path d="M8.01007 3.14596C8.11489 2.41221 8.7433 1.86719 9.48451 1.86719H10.5155C11.2567 1.86719 11.8851 2.41221 11.9899 3.14596C12.0682 3.6941 12.4515 4.14068 12.9415 4.39853C13.0906 4.47702 13.2363 4.5613 13.3781 4.65106C13.8464 4.94748 14.4254 5.05627 14.9397 4.8498C15.6281 4.57352 16.4148 4.84541 16.7857 5.48775L17.3002 6.37889C17.6711 7.02133 17.5132 7.83875 16.9296 8.2968C16.4942 8.63858 16.2986 9.19342 16.3203 9.74654C16.3237 9.83053 16.3253 9.91495 16.3253 9.99976C16.3253 10.0845 16.3237 10.1689 16.3204 10.2529C16.2986 10.806 16.4942 11.3608 16.9296 11.7026C17.5132 12.1606 17.6711 12.9781 17.3002 13.6205L16.7856 14.5117C16.4148 15.154 15.6281 15.4259 14.9398 15.1496C14.4255 14.9432 13.8465 15.052 13.3782 15.3484C13.2364 15.4382 13.0907 15.5225 12.9415 15.601C12.4515 15.8588 12.0682 16.3054 11.9899 16.8536C11.8851 17.5873 11.2567 18.1323 10.5155 18.1323H9.48451C8.7433 18.1323 8.11489 17.5873 8.01007 16.8536C7.93176 16.3054 7.54851 15.8588 7.05851 15.601C6.90935 15.5225 6.76371 15.4382 6.62188 15.3485C6.15354 15.052 5.57461 14.9433 5.06023 15.1497C4.3719 15.426 3.58516 15.1541 3.21431 14.5118L2.69981 13.6206C2.3289 12.9782 2.48682 12.1608 3.07036 11.7027C3.50578 11.3609 3.7014 10.8061 3.67963 10.253C3.67632 10.169 3.67465 10.0846 3.67465 9.99976C3.67465 9.91498 3.67632 9.83059 3.67962 9.74662C3.70139 9.19352 3.50577 8.6387 3.07035 8.29692C2.48682 7.83888 2.3289 7.02146 2.69981 6.37902L3.21435 5.48781C3.58518 4.84551 4.37187 4.57363 5.06016 4.8499C5.57452 5.05636 6.15343 4.94756 6.62175 4.65115C6.76362 4.56135 6.9093 4.47705 7.05851 4.39853C7.54851 4.14068 7.93176 3.6941 8.01007 3.14596Z" stroke="#181818" stroke-width="1.5"/>
<path d="M12.5 9.99976C12.5 11.3805 11.3807 12.4998 10 12.4998C8.61929 12.4998 7.5 11.3805 7.5 9.99976C7.5 8.61904 8.61929 7.49976 10 7.49976C11.3807 7.49976 12.5 8.61904 12.5 9.99976Z" stroke="#181818" stroke-width="1.5"/>
</svg>
