<svg width="20" height="20" viewBox="0 0 20 20" fill="none" xmlns="http://www.w3.org/2000/svg">
<path d="M13.525 4.05033C14.875 4.12533 16.2167 4.22533 17.5584 4.35866C17.9084 4.39199 18.1584 4.70033 18.1334 5.04199C18.1 5.36699 17.8251 5.60866 17.5084 5.60866H17.4417C13.0251 5.16699 8.62505 5.00033 4.25838 5.43366L2.55838 5.60033C2.20838 5.63366 1.90838 5.38366 1.87505 5.04199C1.84172 4.70033 2.09172 4.39199 2.44172 4.35866L4.14172 4.19199C4.91672 4.11699 5.69172 4.06699 6.46672 4.01699L6.64172 2.95033C6.77505 2.14199 6.95838 1.04199 8.90005 1.04199H11.0834C13.0292 1.04199 13.2159 2.18711 13.3409 2.95377L13.3417 2.95866L13.525 4.04199V4.05033Z" fill="#181818"/>
<path fill-rule="evenodd" clip-rule="evenodd" d="M15.2666 6.45865C15.55 6.45865 15.825 6.57532 16.025 6.78365C16.2166 6.99198 16.325 7.27532 16.3083 7.57532L15.7916 16.117C15.7 17.392 15.5833 18.967 12.675 18.967H7.32495C4.41662 18.967 4.29995 17.3836 4.20829 16.117L3.69162 7.56698C3.67495 7.27532 3.78329 6.99198 3.97495 6.78365C4.16662 6.57532 4.44995 6.45865 4.73329 6.45865H15.2666ZM8.60829 14.792H11.3833C11.725 14.792 12.0083 14.5086 12.0083 14.167C12.0083 13.8253 11.725 13.542 11.3833 13.542H8.60829C8.26662 13.542 7.98329 13.8253 7.98329 14.167C7.98329 14.5086 8.26662 14.792 8.60829 14.792ZM7.91662 11.4586H12.0833C12.425 11.4586 12.7083 11.1753 12.7083 10.8336C12.7083 10.492 12.425 10.2086 12.0833 10.2086H7.91662C7.57495 10.2086 7.29162 10.492 7.29162 10.8336C7.29162 11.1753 7.57495 11.4586 7.91662 11.4586Z" fill="#181818"/>
</svg>
