<svg width="20" height="20" viewBox="0 0 20 20" fill="none" xmlns="http://www.w3.org/2000/svg">
<path d="M5.83317 2.5C3.99222 2.5 2.49984 3.99238 2.49984 5.83333C2.49984 6.44048 2.66216 7.00971 2.94578 7.5M14.1665 2.5C16.0075 2.5 17.4998 3.99238 17.4998 5.83333C17.4998 6.44048 17.3375 7.00971 17.0539 7.5M18.3332 13.3333V12.9167C18.3332 11.8306 17.6143 11.0073 16.6665 10.746M1.6665 13.3333V12.9167C1.6665 11.8306 2.38538 11.0073 3.33317 10.746M16.6665 17.5V17.2024C16.6665 15.7079 15.2036 14.6518 13.7851 15.1222L11.9998 15.7143L11.1884 15.9558C10.4128 16.1866 9.58684 16.1866 8.81128 15.9558L7.99984 15.7143L6.21457 15.1222C4.79609 14.6518 3.33317 15.7079 3.33317 17.2024V17.5M14.1665 8.33333C14.1665 6.03215 12.301 4.16667 9.99984 4.16667C7.69865 4.16667 5.83317 6.03215 5.83317 8.33333C5.83317 10.6345 7.69865 12.5 9.99984 12.5C12.301 12.5 14.1665 10.6345 14.1665 8.33333Z" stroke="#181818" stroke-width="1.5" stroke-linecap="round"/>
</svg>
